<?xml version="1.0" encoding="UTF-8"?>
<!DOCTYPE svg PUBLIC "-//W3C//DTD SVG 1.1//EN" "http://www.w3.org/Graphics/SVG/1.1/DTD/svg11.dtd">
<!-- Creator: CorelDRAW -->
<svg xmlns="http://www.w3.org/2000/svg" xml:space="preserve" width="319.9mm" height="194.428mm" version="1.1" style="shape-rendering:geometricPrecision; text-rendering:geometricPrecision; image-rendering:optimizeQuality; fill-rule:evenodd; clip-rule:evenodd"
viewBox="0 0 34546.58 20996.66"
 xmlns:xlink="http://www.w3.org/1999/xlink"
 xmlns:xodm="http://www.corel.com/coreldraw/odm/2003">
 <defs>
  <style type="text/css">
   <![CDATA[
    .fil0 {fill:#FEFEFE;fill-rule:nonzero}
   ]]>
  </style>
 </defs>
 <g id="Camada_x0020_1">
  <metadata id="CorelCorpID_0Corel-Layer"/>
  <path class="fil0" d="M26719.36 17881.49c1.19,0.71 2.37,0.4 3.47,0.4 15.65,-4.96 -10.3,-3.47 -3.47,-0.4z"/>
  <path class="fil0" d="M1974.93 9716.13c937.17,-764.67 1832.1,-1581.02 2722.4,-2399.02 1080.8,-993.18 2148.71,-2000.05 3214.26,-3008.88 928.84,-879.28 1853.82,-1762.02 2788.39,-2635.16 318.03,-297.18 636.92,-594.37 962.26,-884.23 107.06,-95.26 214.51,-190.13 324.63,-281.61 20.93,-17.15 41.93,-34.3 62.85,-51.05 25.1,-20.53 59.4,-45.7 22.51,-18.25 27.05,-19.83 56,-37.76 82.28,-58.29 47.58,-36.97 -12.98,3.39 -45,3.78 -15.57,0 -104.77,-28.55 -41.53,-2.68 41.93,16.84 -30.83,-28.55 -3.38,-2.67 12.91,11.88 26.27,22.88 39.17,34.3 29.74,27.45 58.29,56.39 87.32,85.35 184.37,184.37 368.76,368.06 569.51,535.28 747.44,620.64 1641.66,1028.65 2587.57,1240.1 1699.16,379.46 3456.14,172.97 5140.83,-176.84 528.37,-109.65 1038.57,-258.24 1546.01,-440.02 438.46,-156.93 868.19,-284.53 1334.49,-172.51 392.44,94.47 669.41,357.67 944.81,639.99 208.85,214.12 406.52,439.24 578.71,684.19 429.73,611.11 815.72,1240.88 1325.05,1793.64 485.35,526.17 1104.02,931.12 1718.92,1288.08 1437.06,834.36 2996.76,1447.28 4541.6,2048.89 308.98,119.97 617.96,239.61 926.16,361.53 -38.47,-94.87 -77.01,-189.73 -115.48,-284.6 -709.38,1238.14 -1478.13,2442.83 -2257.27,3637.93 -811.79,1244.58 -1641.59,2477.36 -2486.18,3699.92 -543.32,786.39 -1085.06,1577.24 -1662.98,2339.23 -9.52,12.12 -19.04,24.38 -28.16,36.58 -8.41,11.02 24,-30.91 0.39,-0.39 -15.26,19.04 -30.52,38.47 -45.78,57.89 -20.53,25.49 -44.13,49.56 -63.95,75.83 -5.35,7.24 -12.58,12.89 -19.04,19.43 44.92,-45.39 10.23,7.24 -6.92,-0.4 -8.73,-3.84 35.87,-5.73 -16.75,5.36 -24,5.27 -47.59,11.4 -71.58,16.36 -43.82,9.13 6.45,-0.4 -1.19,0.39 -12.58,1.1 -25.09,3.07 -38.07,3.38 -34.3,1.5 -68.91,3.47 -103.21,3.47 -70.16,0.39 -140.25,-3.78 -209.55,-10.3 -160.79,-14.48 -328.81,-43.81 -516.65,-83.78 -1115.03,-236.61 -2198.9,-662.88 -3234.4,-1131.85 -1288.47,-583.67 -2539.98,-1275.5 -3677.89,-2118.59 -532.23,-394.33 -1039.28,-827.91 -1490.41,-1313.64 -203.02,-219.07 -395.03,-448.76 -566.13,-693.72 -112.4,-161.17 -228.59,-272.01 -419.81,-332.18 -67.02,-21.39 -141.75,-26.27 -206.88,-52.62 -69.31,-28.55 -154.34,-93.37 -229.3,-132.15 -708.66,-367.67 -1592.11,-509.02 -2376.52,-340.61 -158.9,34.3 -311.65,87.64 -457.18,160 -16.36,8.02 -32.01,17.15 -48.37,25.17 -33.51,16.36 -7.64,3.77 -13.38,6.06 -40.75,15.96 -82.28,29.73 -124.2,42.64 -254.47,79.68 -516.97,135.68 -777.89,190.12 -751.29,156.61 -1510.92,279.25 -2272.13,375.29 -789.37,100.22 -1573.79,162.67 -2367.01,62.46 -1735.65,-218.68 -3423.82,-1026.38 -4730.85,-2180.66 -314.33,-277.36 -607.26,-577.53 -876.29,-899.5 -159.99,-191.22 -432.71,83.78 -273.9,274.3 1136.82,1360.45 2719.8,2358.18 4408.97,2878.22 832.48,256.44 1710.97,396.21 2583,369.16 783.32,-24.38 1570.01,-148.6 2342.62,-272.01 661.7,-105.49 1334.17,-212.94 1979.51,-397.71 208.77,-59.78 395.82,-170.3 603.88,-228.6 365.7,-102.81 762.63,-103.6 1137.13,-54.04 413.76,54.44 827.12,179.74 1188.65,391.19 70.48,41.52 134.43,83.84 213.33,108.23 79.29,24.78 164.96,30.84 240.78,65.92 127.59,58.61 203.81,227.02 286.49,336.05 393.93,517.27 855.28,977.52 1351.71,1396.63 1098.35,926.87 2343.32,1676.98 3628.34,2314.38 1126.91,558.89 2303.76,1052.25 3517.89,1388.21 400.78,110.91 812.66,209.56 1228.22,239.29 224.03,16.36 510.2,21.32 682.39,-148.2 169.12,-166.85 303.24,-385.92 443.01,-576.83 286.18,-391.27 566.13,-787.09 844.28,-1184.01 816.03,-1163.48 1615.7,-2339.23 2401.22,-3523.24 835.53,-1259.13 1658.41,-2527.79 2437.08,-3822.7 164.24,-273.9 326.52,-548.98 485.34,-825.94 67.49,-118.08 -0.7,-239.21 -115.79,-284.53 -1485.05,-587.12 -2984.49,-1142.55 -4415.1,-1856.49 -705.12,-351.61 -1409.53,-736.82 -2031.27,-1224.04 -601.21,-470.95 -1074.36,-1083.48 -1492.68,-1717.8 -349.33,-530.34 -707.86,-1031.33 -1173.78,-1467.9 -312.36,-292.94 -627.48,-504.06 -1057.21,-577.54 -473.14,-81.18 -912.39,24.38 -1357.38,182.89 -1012.21,359.95 -2063.37,588.93 -3129.61,723.05 -846.95,106.66 -1707.59,139.78 -2557.53,49.09 -1066.33,-113.12 -2117.41,-445.7 -2994.01,-1074.28 -227.1,-162.68 -464.02,-369.95 -683.09,-587.44 -115.48,-114.69 -232.77,-269.42 -379.86,-345.56 -193.11,-99.82 -360.74,69.3 -500.21,183.99 -257.14,211.05 -502.1,437.76 -747.43,662.89 -860.64,790.15 -1705.7,1597.85 -2553.67,2401.68 -1066.02,1010.33 -2131.95,2020.66 -3207.41,3020.68 -969.58,901.38 -1944.12,1799.77 -2950.2,2660.32 -190.52,162.67 -382.14,323.85 -576.44,482.36 -193.19,157.71 82.28,430.12 273.9,273.9l0 0z"/>
  <path class="fil0" d="M21514.98 1511.12c-1134.14,1273.21 -2229.11,2579.93 -3305.36,3901.92 -1085.37,1333.39 -2151.3,2682.43 -3218.04,4030.69 -590.51,747.13 -1181.41,1493.77 -1776.1,2237.45 -65.13,81.88 -79.6,194.29 0,273.9 67.81,67.8 208.38,82.28 274.3,0 1064.44,-1332.22 2117.41,-2673.23 3178.86,-4008.19 1069.72,-1345.59 2147.46,-2684.72 3253.44,-4000.57 612.23,-728.79 1233.64,-1450.36 1866.79,-2160.91 165.35,-185.88 -107.84,-460.56 -273.89,-274.29l0 0z"/>
  <path class="fil0" d="M24606.91 2173.68c-1025.98,1273.53 -2014.99,2576.47 -3011.23,3872.89 -1039.59,1352.9 -2088.06,2698.88 -3184.93,4006.3 -638.49,761.6 -1293.34,1509.43 -1968.81,2238.63 -169.13,182.89 103.99,457.5 273.9,273.9 1188.26,-1282.73 2310.99,-2624.54 3399.03,-3992.93 1048.01,-1317.41 2064.47,-2659.61 3091.95,-3992.61 551.65,-715.82 1107.16,-1428.26 1673.99,-2132.28 65.53,-81.18 79.29,-194.3 0,-273.9 -67.81,-67.81 -207.98,-81.97 -273.9,0l0 0z"/>
  <path class="fil0" d="M15518.07 12363.87c135.3,758.52 502.49,1469.39 925.06,2105.99 505.88,763.1 1116.99,1456.81 1774.13,2092.32 681.6,659.02 1420.62,1261.41 2202.44,1797.42 691.83,474.32 1422.12,898.71 2199.3,1217.21 553.14,227.01 1188.64,435.07 1795.2,368.05 70.41,-7.62 140.57,-17.54 209.48,-32.8 243.46,-52.94 140.25,-426.34 -103.21,-373.33 -26.66,5.67 -53.33,10.3 -80.08,15.18 -41.14,7.62 3.07,0.39 -1.89,0.79 -14.08,1.49 -28.15,3.46 -42.64,4.56 -60.96,6.13 -122.31,8.81 -183.67,8.81 -62.85,0 -126.02,-2.68 -188.94,-7.64 -33.12,-2.67 -65.92,-6.13 -98.64,-9.9 -18.65,-2.29 -53.34,-7.24 -13.29,-1.5 -19.51,-2.67 -39.26,-5.73 -58.76,-8.81 -309.3,-49.16 -611.44,-139.86 -904.77,-248.8 -84.56,-31.23 -168.81,-64.34 -252.19,-99.03 -7.62,-3.08 -50.66,-21.32 -24.77,-10.31 -20.62,-8.73 -41.53,-17.85 -62.06,-26.66 -45.39,-19.83 -90.3,-39.57 -134.9,-60.17 -177.54,-80.79 -352.8,-167.62 -525.38,-258.64 -370.66,-195.86 -730.68,-412.27 -1081.2,-642.35 -762.3,-501 -1476.24,-1065.23 -2144.47,-1686.58 -651.47,-605.29 -1267.08,-1269.04 -1775.7,-1986.36 -233.15,-328.8 -447.27,-671.69 -628.59,-1031.33 -43.81,-86.45 -85.35,-173.68 -124.6,-262.1 -8.02,-17.85 -16.05,-36.18 -23.98,-54.11 -15.66,-36.5 -3.47,-7.56 -14.48,-34.22 -18.71,-44.6 -36.18,-89.51 -53.33,-134.5 -62.85,-164.17 -116.97,-331.79 -159.21,-502.5 -19.83,-80 -36.65,-160.78 -51.13,-241.96 -18.64,-102.82 -144.34,-161.1 -238.41,-135.23 -108.64,30.13 -153.55,134.9 -135.3,238.51l0 0z"/>
  <path class="fil0" d="M14531.33 11837.78c-1144.83,655.25 -2368.8,1169.54 -3655.39,1468.61 -1050.36,243.85 -2132.28,337.14 -3208.51,266.65 -891.87,-58.6 -1775,-233.93 -2629.49,-515.07 -188.16,-62.06 -374.9,-129.48 -559.68,-201.53 -81.89,-32.02 -190.44,-76.15 -254.47,-103.21 -61.67,-25.95 -165.35,-71.65 -243.07,-106.66 -308.19,-140.25 -610.33,-294.89 -904.05,-463.63 -243.77,-140.25 -481.88,-290.72 -712.43,-452.23 -49.48,-34.69 -98.64,-70.16 -147.41,-105.95 -10.63,-8.02 -21.72,-19.83 -33.91,-25.1 -17.15,-7.62 -53.33,-66.71 25.57,40.36 40.35,54.51 23.6,50.27 37.35,102.11 7.95,29.73 -7.31,5.73 6.46,-12.59 -26.27,34.69 -0.4,4.17 11.02,-16.36 103.6,-183.28 266.34,-345.16 427.83,-496.04 88.74,-82.67 180.61,-160.39 281.22,-228.2 205.3,-139.07 11.4,-475.03 -195.88,-334.86 -227.41,154.26 -432.79,344.39 -613.39,551.65 -119.57,137.11 -303.95,329.12 -301.75,526.48 2.37,162.67 209.16,264.37 328.8,348.15 115.09,80.08 232.05,157.4 350.52,232.05 613.72,386.7 1270.53,705.2 1949.07,961.56 860.24,325.02 1758.56,537.96 2672.13,641.17 1097.56,124.2 2209.6,74.33 3295.36,-126.42 1317.04,-243.85 2585.68,-717.39 3768.99,-1341.02 168.73,-88.8 335.25,-180.99 500.6,-275.47 216.4,-123.81 21.32,-458.67 -195.48,-334.47l0 0z"/>
  <path class="fil0" d="M14799.57 11906.29c-869.37,828.23 -1929.64,1428.66 -3062.6,1815.35 -1113.21,379.85 -2275.2,566.51 -3445.13,620.64 -563.85,26.27 -1129.26,21.32 -1692.63,-10.3 -507.13,-28.24 -1044.31,-81.97 -1517.86,-150.49 -813.75,-118.46 -1628.6,-284.99 -2409.63,-546.7 -132.94,-44.6 -265.16,-92.19 -395.03,-145.13 -6.85,-3.07 -59.47,-24.77 -25.56,-10.69 39.24,16.75 -23.21,-10.7 -24,-10.3 10.7,10.69 20.92,21.31 31.23,31.62 38.47,28.63 56.79,68.99 55.6,120.43 0,-5.36 -11,60.17 -4.56,38.46 -38.86,129.56 -18.64,34.3 -12.91,30.84 0.71,-0.71 10.63,-18.25 10.63,-18.65 -0.4,-7.62 16.36,-22.88 20.22,-29.34 -31.62,51.76 -4.57,6.46 7.24,-7.62 28.16,-33.12 57.89,-65.13 87.62,-96.75 144.03,-152.05 296.79,-295.3 447.27,-440.82 121.15,-117.28 268.15,-236.92 359.25,-380.96 52.94,-83.77 69.3,-206.87 -15.26,-279.63 -79.21,-68.2 -195.79,-78.11 -273.9,0 -69.77,69.77 -79.6,205.38 0,273.9 -15.65,-59.4 -31.23,-118.47 -46.49,-177.46 -3.07,9.84 -0.78,4.96 6.85,-16.05 3.47,8.74 10.7,-34.3 4.57,-12.19 -2.68,9.13 -12.52,16.76 -16.76,24.78 15.26,-28.56 24,-28.95 1.58,-4.18 -12.59,14.08 -25.17,28.16 -37.76,41.86 -61.66,66.7 -127.27,130.34 -192.4,193.9 -155.83,152.05 -315.04,301.04 -466.7,457.26 -102.11,104.38 -268.17,246.05 -265.88,406.05 3.38,195.86 266.65,249.19 416.35,304.81 737.22,273.9 1516.67,444.2 2290.85,572.18 1075.07,178.33 2167.28,264.39 3256.9,241.97 1201.55,-24.78 2410.81,-179.82 3563.99,-524.59 1189.75,-355.48 2316.65,-919.71 3267.98,-1722.76 119.96,-101.79 236.93,-206.88 350.83,-315.43 180.61,-172.19 -93.37,-446.17 -273.9,-273.99l0 0z"/>
  <path class="fil0" d="M15115.01 11945.55c-438.86,874.71 -1088.44,1618.78 -1885.04,2160.12 -792.83,538.29 -1657.63,872.43 -2589.46,1089.94 -921.59,215.69 -1836.66,299.46 -2794.05,304.02 -451.44,2.29 -903.66,-14.86 -1354,-48.77 -213.64,-15.96 -427.44,-35.79 -640.38,-59.38 -99.43,-11.09 -198.86,-22.89 -297.97,-35.48 -26.59,-3.38 -52.94,-6.85 -79.6,-10.3 -11.4,-1.5 -23.21,-2.99 -35.01,-4.49 8.02,1.1 37.37,4.88 -0.78,0 -49.17,-6.92 -97.94,-13.76 -146.71,-20.6 -629.29,-91.09 -1257.16,-210.34 -1869.78,-381.74 -54.51,-15.26 -108.94,-30.84 -163.07,-47.28 47.28,62.14 94.56,124.6 142.14,186.74 -6.84,38.47 -7.62,47.99 -1.97,27.78 -14.47,31.62 -16.67,37.75 -7.16,19.03 10.23,-9.13 19.04,-29.65 26.99,-41.53 -30.05,42.72 11.79,-11.79 18.71,-19.43 15.97,-17.46 32.33,-34.21 49.09,-51.05 79.68,-79.21 166.12,-151.58 253.76,-221.66 118.47,-94.48 275.48,-221.75 428.94,-293.01 94.86,-44.14 118.93,-180.93 69.77,-265.1 -57.19,-97.23 -169.91,-113.9 -265.17,-69.37 -195.79,91.02 -376,246.52 -542.13,381.35 -165.35,134.5 -395.43,304.81 -418.33,533 -8.34,84.96 66.32,163.78 142.15,186.66 584.37,176.75 1187.08,296.72 1789.38,391.98 861.03,136.39 1731.5,216.78 2603.22,228.98 968.41,12.98 1942.55,-57.89 2892.7,-250.69 951.25,-192.72 1887.72,-517.36 2719.01,-1024.01 861.34,-525.78 1591.32,-1249.62 2101.05,-2122.36 66.63,-113.9 129.16,-230.16 188.15,-347.84 111.62,-222.14 -222.45,-418.72 -334.46,-195.48l0 0z"/>
  <path class="fil0" d="M15165.27 12197.03c75.13,1156.56 491.48,2256.8 1104.89,3233.3 606.47,965.73 1386.32,1817.94 2237.36,2573.41 774.57,687.35 1613.42,1304.12 2490.11,1854.99 569.51,358.07 1157.02,697.96 1769.16,979.5 127.67,58.68 285.78,156.22 431.7,158.42 56.72,0.79 101.71,-21.32 145.52,-53.65 84.57,-61.75 164.57,-130.73 243.46,-199.64 217.9,-190.12 431.62,-388.98 622.84,-606.16 78.9,-89.91 158.9,-183.99 217.18,-289.16 120.43,-218.68 -214.12,-414.07 -334.86,-195.4 -22.1,40.36 -48.06,78.42 -75.82,115.4 17.93,-24 -32.73,39.64 -40.36,48.77 -22.49,26.27 -45.39,52.24 -68.28,78.11 -97.46,107.84 -200.35,210.26 -305.52,310.48 -99.03,94.47 -200.35,187.05 -303.63,276.58 -38.08,32.8 -76.15,65.52 -115,97.14 -13.38,11.49 -27.45,22.11 -41.14,33.51 -30.83,25.96 29.74,-21.63 9.52,-7.15 -5.36,3.77 -14.08,14.47 -20.62,15.17 -0.39,0 -21.32,14.17 -21.32,14.17 -6.45,-17.24 100.22,-25.57 92.58,-25.57 -24.38,0.4 65.53,18.65 34.3,4.57 -16.05,-7.24 -35.4,-10.31 -52.22,-15.97 -27.45,-9.91 -54.44,-21 -81.5,-31.62 -58.67,-23.28 34.3,15.26 -8.02,-3.47 -20.53,-8.73 -40.75,-17.54 -61.35,-26.66 -564.16,-250.69 -1105.19,-560.07 -1631.28,-881.95 -391.65,-239.29 -775.28,-492.18 -1149.79,-758.15 -424.77,-301.74 -797.79,-589.32 -1195.81,-926.86 -836.25,-709.77 -1618.78,-1510.22 -2234.06,-2402.8 -624.02,-904.84 -1083.48,-1896.13 -1233.97,-2991.8 -3.77,-27.76 -14.07,-114.3 -19.43,-167.62 -6.84,-69.7 -12.58,-139.78 -17.15,-209.87 -6.84,-104.38 -84.24,-193.59 -193.5,-193.59 -99.9,0 -200.82,88.81 -193.99,193.59l0 0z"/>
  <path class="fil0" d="M24727.66 19855.65c501.78,-515.78 993.25,-1040.45 1466.8,-1582.5 68.52,-78.9 77.32,-196.65 0,-273.99 -70.56,-70.48 -204.99,-79.21 -274.36,0 -473.16,542.14 -964.55,1066.33 -1466.33,1582.59 -173.76,179.04 99.83,453.33 273.9,273.9l0 0z"/>
  <path class="fil0" d="M15921.91 12448.43c435.48,988.22 1053.75,1886.93 1773.42,2688.88 685.77,764.28 1466.33,1439.75 2296.92,2042.05 705.51,512.01 1451.45,969.9 2226.35,1369.57 537.57,276.97 1092.61,536.78 1667.93,727.3 145.53,48.38 307.02,107.06 462.45,112.72 186.66,6.53 372.61,-127.98 513.98,-234.26 236.53,-178.32 449.94,-385.98 634.32,-617.96 99.74,-125.3 192.32,-255.25 273.51,-393.54 126.48,-215.61 -208.38,-410.68 -334.47,-195.79 -149.37,254.87 -337.54,481.88 -552.04,684.59 -86.85,82.28 -178.33,161.89 -272.41,228.99 -41.92,29.65 -84.96,57.89 -129.16,83.77 -17.86,10.31 -36.19,20.62 -54.51,30.13 -15.97,7.95 -65.13,26.27 -24,12.19 -12.51,4.17 -37.28,7.95 -48.37,15.26 -27.78,19.04 43.41,-14.16 6.13,-0.46 -5.35,1.97 -15.66,-0.31 -21.32,-1.1 -33.51,-5.36 50.26,9.51 28.94,3.77 -26.66,-7.16 -54.9,-9.83 -81.97,-15.57 -75.03,-17.15 -148.9,-38.47 -222.05,-61.75 -222.85,-69.7 -440.82,-154.64 -656.43,-244.56 -16.36,-6.85 -47.99,-20.22 -12.19,-4.96 -15.66,-6.45 -30.84,-13.37 -46.49,-19.82 -36.19,-15.58 -72.38,-31.23 -108.55,-47.2 -71.27,-31.62 -142.54,-63.64 -213.33,-96.05 -154.73,-71.26 -308.2,-145.52 -460.25,-222.14 -744.06,-373.33 -1461.06,-801.87 -2143.37,-1278.48 -798.1,-558.1 -1549,-1187.87 -2222.18,-1897.23 -707.88,-746.34 -1322.69,-1581.8 -1779.16,-2505.28 -58.61,-118.47 -113.91,-237.72 -167.24,-358.47 -42.25,-96.04 -182.11,-118.14 -265.17,-69.77 -98.64,57.98 -111.62,169.2 -69.3,265.17l0 0z"/>
  <path class="fil0" d="M2974.25 10963.07c-192.01,172.89 -359.25,368.76 -501.77,583.98 -34.7,51.84 -10.63,129.17 41.53,158.9 1403.08,800.77 2908.35,1490.71 4518.3,1732.29 1654.96,248.73 3332.34,-12.19 4913.43,-524.2 900.2,-291.44 1773.42,-661.38 2626.43,-1068.61 135.22,-64.43 17.06,-264.77 -117.37,-200.82 -1481.98,707.48 -3039.79,1306.32 -4671.07,1550.57 -802.75,119.96 -1621.84,146.31 -2428.75,53.73 -785.52,-90.3 -1555.46,-298.76 -2294.96,-574.94 -842.69,-315.03 -1648.11,-723.06 -2428.67,-1168.75 13.69,53.34 27.78,106.27 41.46,159.21 132.24,-198.86 288.46,-377.18 466,-536.78 111.22,-100.22 -53.34,-264.39 -164.57,-164.56l0 0z"/>
  <path class="fil0" d="M3397.13 12591.28c-205.38,178.32 -369.16,398.89 -479.68,647.3 -30.52,68.2 -9.13,148.2 69.38,170.69 454.12,131.05 908.22,261.71 1362.34,392.76 445.69,127.98 890.28,269.73 1344.79,363.03 458.67,93.76 923.88,112.1 1390.5,109.42 466.77,-2.37 934.18,-6.53 1400.09,-27.14 1451.14,-63.56 2930.84,-260.92 4261.16,-873.15 744.45,-342.1 1419.92,-813.35 2021.83,-1367.28 110.13,-101.72 -54.43,-265.96 -164.16,-164.64 -525.38,483.85 -1108.27,900.67 -1747.16,1221.85 -606.87,305.13 -1255.66,516.57 -1918.63,659.81 -707.01,152.77 -1428.26,229.77 -2149.43,275.08 -465.12,29.34 -931.43,35.4 -1397.73,40.36 -458.67,4.96 -922.78,15.66 -1378,-52.55 -494.86,-73.94 -974.93,-228.59 -1454.13,-366.48 -503.27,-145.13 -1006.55,-290.34 -1509.82,-435.08 23.28,56.79 46.48,113.9 69.37,170.7 103.6,-232.45 251.4,-433.2 443.41,-600.03 113.11,-98.33 -51.84,-262.1 -164.17,-164.63l0 0z"/>
  <path class="fil0" d="M4373.87 14266.84c-128.77,174.47 -257.54,348.55 -385.91,523.03 -41.46,56 -0.79,160.39 69.37,170.69 1371.46,204.99 2761.64,318.5 4148.76,259.43 1011.11,-43.03 2024.5,-176.36 2999.43,-452.94 708.9,-200.82 1400.42,-478.89 2035.13,-855.28 449.55,-266.74 872.83,-584.45 1242.69,-954.31 226.31,-226.31 432.4,-473.23 611.44,-738.32 13.37,-19.5 26.35,-39.26 39.26,-59.07 81.95,-125.31 -119.26,-241.89 -200.75,-117.37 -62.85,95.96 -129.17,189.34 -198.47,280.42 -16.84,22.03 15.18,-19.43 -1.89,2.68 -5.73,6.85 -11.09,14.08 -16.83,21.32 -12.19,15.18 -24.38,30.83 -36.9,46.09 -24.77,30.84 -49.95,61.36 -75.82,91.4 -58.68,69.7 -119.64,137.58 -182.5,203.42 -336.83,355.87 -697.96,644.24 -1105.2,904.45 -583.66,372.61 -1220.66,654.14 -1879.69,862.91 -910.58,288.77 -1859.94,443.49 -2811.59,508.94 -1312.07,90.3 -2632.48,17.15 -3935.83,-148.51 -190.12,-24.38 -379.85,-51.06 -569.58,-79.3 23.28,56.79 46.49,113.59 69.37,170.7 128.77,-174.47 257.54,-348.55 386.31,-523.1 88.73,-120.36 -112.8,-236.53 -200.82,-117.29l0 0z"/>
  <path class="fil0" d="M16857.2 13186.35c923.48,1080.49 1936.88,2082.79 3029.09,2992.2 540.25,449.86 1094.57,896.82 1695.7,1264.01 610.34,373 1277.07,614.11 1967.72,791.33 195.48,49.87 391.65,95.57 588.23,140.17 180.61,40.75 383.63,114.3 570.68,90.3 146.71,-19.04 261.79,-108.24 358.15,-215.22 87.24,-96.84 169.12,-232.05 294.12,-283.5 136.39,-56.39 76.53,-281.52 -61.75,-224.42 -118.47,49.17 -208.77,125.78 -292.63,221.75 -72.37,83.46 -141.27,187.84 -240.31,241.96 -137.57,75.36 -320.85,0 -462.53,-31.62 -173.37,-38.86 -346.74,-78.5 -519.63,-120.43 -678.92,-166.05 -1342.59,-379.06 -1949.86,-730.68 -592.4,-343.27 -1133.74,-773.01 -1661.41,-1206.91 -535.21,-440.02 -1052.25,-902.16 -1548.99,-1384.83 -560.39,-544.41 -1094.58,-1114.7 -1602.41,-1708.29 -97.15,-113.9 -260.92,51.06 -164.17,164.17l0 0z"/>
  <path class="fil0" d="M15073.86 12398.16c97.15,1458 582.1,2878.62 1374.14,4104.95 822.16,1272.42 1950.96,2288.89 3287.41,2997.15 941.42,498.24 1905.66,956.99 2858.87,1432.04 59,29.73 121.85,13.37 158.82,-41.53 58.28,-86.45 116.58,-172.58 174.47,-259.04 83.86,-124.59 -117.29,-241.17 -200.75,-117.35 -57.89,86.45 -116.18,172.58 -174.16,259.1 53.02,-14.16 105.96,-27.84 158.9,-41.61 -831.69,-414.86 -1664.79,-825.94 -2494.2,-1244.58 -704.41,-355.87 -1376.5,-753.58 -1975.73,-1270.15 -1081.59,-932.29 -1923.12,-2141.87 -2424.5,-3478.72 -281.53,-750.82 -457.57,-1539.88 -510.82,-2340.26 -10,-148.2 -242.37,-149.37 -232.45,0l0 0z"/>
  <path class="fil0" d="M18922.84 6027.54c638.89,-822.49 1341.02,-1591.71 2005.4,-2392.88 167.24,-201.53 331.08,-405.35 492.26,-611.44 92.19,-117.75 202.64,-187.84 349.34,-221.35 256.35,-58.68 621.74,12.19 732.17,284.2 111.31,275.08 -183.2,589.33 -349.33,773.79 -113.9,126.4 -235.04,246.45 -350.52,371.84 -105.88,114.21 -195.78,239.2 -286.41,366.08 -477.39,668.94 -936.06,1372.64 -1553.63,1924.3 -160.79,143.64 -334.07,275.4 -524.59,378.67 -113.2,61.67 -240.39,67.42 -360.82,20.54 -126.4,-49.09 -229.69,-152.77 -272.72,-281.53 -63.64,-190.52 2.99,-388.98 97.54,-556.61 73.48,-130.26 -127.27,-247.63 -200.82,-117.28 -182.5,324.56 -235.03,748.93 61.75,1026.29 111.23,104 253.29,170.3 404.56,187.85 169.13,20.13 312.05,-32.02 455.68,-116.98 378.28,-224.03 698.27,-540.64 984.77,-870.54 304.42,-350.12 577.22,-726.9 845.37,-1105.19 122.71,-173.37 244.25,-347.45 369.55,-518.86 95.66,-131.44 213.41,-246.12 325.35,-363.1 240.78,-251.79 548.98,-550.08 601.21,-911.99 51.36,-358.86 -236.61,-639.68 -567.3,-715.9 -356.97,-81.89 -722.27,21.32 -948.58,311.26 -793.93,1017.24 -1683.12,1955.13 -2474.46,2974.66 -90.62,116.58 72.76,282.31 164.24,164.17l0 0z"/>
  <path class="fil0" d="M16671.63 7816.61c542.14,31.94 1126.19,193.11 1584.48,491.79 270.12,175.65 528.85,372.23 783.31,569.58 63.25,48.78 126.1,98.25 187.06,150.09 20.92,17.94 41.53,35.8 61.66,54.51 5.36,5.27 10.7,13.29 17.15,17.54 11.49,7.56 3.86,-0.78 -1.1,-2.35 -6.52,-8.74 -8.41,-11.02 -5.35,-6.85 27.76,45.7 41.92,-3.77 42.32,-149.3 -127.28,78.11 -10.7,279.25 117.28,200.75 156.22,-95.65 -17.85,-237.71 -97.54,-303.63 -149.69,-123.81 -305.91,-240.79 -462.05,-356.58 -150.16,-111.62 -301.75,-222.14 -456.08,-328.01 -185.88,-127.28 -391.65,-221.35 -600.02,-305.92 -373.73,-151.26 -768.37,-240.39 -1171.12,-264.06 -149.3,-8.74 -148.9,223.63 0,232.44l0 0z"/>
  <path class="fil0" d="M16393.57 8216.21c486.13,87.24 958.49,241.18 1399.7,463.63 214.83,108.24 422.49,231.65 619.85,369.16 195.39,136.39 437.28,289.23 545.91,508.23 66.71,134.12 267.05,16.36 200.75,-117.37 -113.9,-229.69 -346.66,-387.8 -548.98,-534.42 -212.55,-154.34 -437.36,-291.84 -670.91,-411.48 -467.01,-239.6 -968.01,-409.12 -1484.57,-501.71 -146.31,-26.35 -209.16,197.68 -61.75,223.95l0 0z"/>
  <path class="fil0" d="M716.59 8627.29c-535.68,604.2 -791.26,1440.45 -697.57,2242.01 27.06,227.41 78.51,450.34 160.39,664.45 18.25,47.99 64.04,81.1 116.98,66.63 46.09,-12.59 84.95,-68.91 66.62,-117.37 -269.64,-706.3 -217.5,-1519.66 128.07,-2191.35 97.85,-190.83 217.88,-369.08 360.35,-529.86 81.18,-91.48 -53.34,-226.71 -134.83,-134.51z"/>
  <path class="fil0" d="M1962.35 7739.29c-27.76,-42.71 -84.56,-61.35 -130.26,-33.9 -95.26,57.11 -190.92,114.21 -286.18,171.39 -42.64,25.57 -62.06,86.85 -34.21,130.27 27.76,43.1 84.96,61.75 130.66,34.3 95.25,-57.12 190.51,-114.69 285.69,-171.8 42.71,-25.49 62.54,-86.45 34.3,-130.26z"/>
  <path class="fil0" d="M34340.71 7177.33c-78.03,-175.65 -180.13,-337.93 -300.56,-488.01 -32.41,-40.04 -101.32,-33.51 -134.83,0 -39.64,39.96 -32.41,94.87 0,134.83 383.24,476.21 531.44,1133.83 414.47,1731.17 -33.51,169.91 -86.46,335.65 -161.58,491.41 -22.42,46.48 -12.51,102.88 34.3,130.34 41.53,24.38 107.84,12.19 130.35,-34.3 296.39,-614.89 294.12,-1343.69 17.85,-1965.43z"/>
  <path class="fil0" d="M33849.32 9993.87c-41.93,-22.1 -108.24,-14.16 -130.35,34.3 -22.11,48.77 -46.8,95.97 -74.64,141.67 -14.48,24.38 -29.74,47.98 -45.7,71.26 -7.24,10.23 -14.48,20.53 -22.11,30.83 -4.17,5.75 -8.42,11.41 -12.59,17.15 -0.78,1.19 -1.49,1.89 -1.88,2.68 -0.4,0.39 -0.79,0.79 -1.19,1.1 -68.9,84.64 -143.63,161.97 -229.3,229.37 -39.24,31.23 -35.08,102.89 0,134.9 41.53,38.08 92.98,33.12 134.83,0 177.94,-140.96 322.67,-326.12 417.23,-533 20.53,-45 14.47,-104.38 -34.3,-130.27z"/>
 </g>
</svg>
