<?xml version="1.0" encoding="UTF-8"?>
<!DOCTYPE svg PUBLIC "-//W3C//DTD SVG 1.1//EN" "http://www.w3.org/Graphics/SVG/1.1/DTD/svg11.dtd">
<!-- Creator: CorelDRAW -->
<svg xmlns="http://www.w3.org/2000/svg" xml:space="preserve" width="302.584mm" height="189.912mm" version="1.1" style="shape-rendering:geometricPrecision; text-rendering:geometricPrecision; image-rendering:optimizeQuality; fill-rule:evenodd; clip-rule:evenodd"
viewBox="0 0 8826.97 5540.13"
 xmlns:xlink="http://www.w3.org/1999/xlink"
 xmlns:xodm="http://www.corel.com/coreldraw/odm/2003">
 <defs>
  <style type="text/css">
   <![CDATA[
    .fil0 {fill:#FEFEFE;fill-rule:nonzero}
   ]]>
  </style>
 </defs>
 <g id="Camada_x0020_1">
  <metadata id="CorelCorpID_0Corel-Layer"/>
  <path class="fil0" d="M38.02 4104.18c152.58,33.55 304.92,68.13 457.2,102.91 198.71,45.49 397.31,91.5 595.84,137.69 232.23,54.04 464.38,108.48 696.51,162.92 253.71,59.6 507.38,119.37 761.03,179.28 259.58,61.35 519.15,122.67 778.73,184.1 254.5,60.22 509,120.42 763.52,180.62 233.78,55.27 467.6,110.43 701.43,165.59 201.89,47.56 403.8,94.98 605.77,142.22 154.82,36.12 309.66,72.14 464.63,107.65 95.81,21.82 191.58,43.94 287.75,64.13 12.75,2.66 25.52,5.23 38.29,7.71 65.81,12.86 93.96,-87.99 27.84,-100.87 -79.7,-15.53 -158.88,-33.96 -238.05,-51.87 -141.75,-32.11 -283.34,-64.92 -424.9,-97.85 -190.96,-44.48 -381.82,-89.33 -572.66,-134.21 -228.04,-53.61 -456.04,-107.43 -684.05,-161.36 -249.8,-58.97 -499.54,-118.04 -749.32,-177.22 -260.45,-61.54 -520.92,-123.18 -781.41,-184.72 -255.45,-60.3 -510.93,-120.63 -766.45,-180.72 -239.46,-56.4 -478.94,-112.6 -718.49,-168.46 -207.96,-48.57 -415.97,-96.96 -624.08,-144.81 -165.01,-37.87 -330.07,-75.63 -495.35,-112.36 -31.98,-7.12 -63.95,-14.22 -95.95,-21.21 -65.64,-14.41 -93.68,86.44 -27.82,100.85l0 0z"/>
  <path class="fil0" d="M6237.45 5518.11c350.63,-293.51 692.72,-596.8 1030.04,-905.55 309.81,-283.4 617.01,-569.7 930.85,-848.81 201.8,-179.38 406.17,-355.88 613.2,-529.29 16.19,-13.47 20.8,-45.98 8.18,-63.39 -16.13,-22.23 -39.08,-27.18 -63.83,-34.57 -11.03,-3.19 -22.08,-6.48 -33.1,-9.77 -6.67,-1.98 -33.04,-13.09 -10.82,-2.28 6.27,6.29 12.52,12.45 18.79,18.74 -0.04,-0.11 -0.13,-0.11 -0.17,-0.21 -16.53,-22.84 -45.53,-34.06 -71.59,-18.83 -22.59,13.26 -35.42,48.55 -18.78,71.61 16.11,22.33 39.1,27.28 63.83,34.6 11.03,3.29 22.08,6.48 33.11,9.77 6.65,2.06 33.04,13.18 10.79,2.36 -6.25,-6.27 -12.49,-12.56 -18.76,-18.83 0.06,0.11 0.11,0.21 0.17,0.21 2.72,-21.1 5.44,-42.2 8.18,-63.41 -350.22,293.4 -691.91,596.48 -1028.89,904.91 -309.85,283.52 -617.15,569.94 -931.15,848.94 -202.08,179.57 -406.75,356.28 -614.05,529.78 -21.7,18.12 -18.74,55.27 0,74.01 21.46,21.5 52.27,18.21 74.01,0l0 0z"/>
  <path class="fil0" d="M2792.09 4639.34c200.1,-77.39 360.62,-228.79 525.46,-361.44 177.11,-142.41 355.2,-283.72 533.75,-424.3 359.77,-283.42 721.38,-564.48 1080.85,-848.21 199.91,-157.75 399.16,-316.44 596.97,-476.89 21.97,-17.81 18.53,-55.46 0,-73.99 -21.72,-21.72 -51.98,-17.91 -73.99,0 -348.61,282.69 -701.68,559.95 -1055.07,836.68 -356.62,279.32 -713.73,558 -1067.29,841.1 -95.03,76.16 -189.16,153.44 -284.44,229.3 -87.01,69.16 -179.66,136.46 -284.06,176.81 -26.35,10.18 -44.58,35.19 -36.55,64.41 6.91,25.11 37.84,46.72 64.36,36.55l0 0z"/>
  <path class="fil0" d="M5559.78 2499.27c132.08,-85.53 265.59,-139.35 410.38,-189.67 190.64,-66.17 387.2,-115.47 585.56,-152.21 447.57,-82.74 917.53,-104.78 1366.99,-23.67 248.44,44.86 491.93,122.46 711.07,249.36 58.37,33.85 111.13,-56.61 52.82,-90.37 -410.89,-237.92 -899.21,-314.7 -1368.35,-312.64 -443.44,1.96 -893.45,70.8 -1315.35,208.28 -171.03,55.7 -344.32,122.27 -495.95,220.54 -56.33,36.55 -3.93,127.22 52.82,90.37l0 0z"/>
  <path class="fil0" d="M78.34 4088.44c117.26,-54.84 184.06,-184.63 222.28,-301.84 45.1,-138.42 59.39,-291.05 40.6,-435.3 -10.2,-78.32 -29.69,-154.8 -67.07,-224.98 -31.69,-59.37 -122.06,-6.59 -90.37,52.91 25.16,47.13 41.18,102.8 50.96,161.47 9.79,58.65 11.58,129.66 7.53,193.88 -7.7,121.76 -37.45,250.4 -101.73,354.13 -29.79,48.04 -63.55,85.29 -115.03,109.28 -25.6,12.05 -32.1,48.87 -18.77,71.63 15.35,26.24 45.89,30.77 71.59,18.83l0 0z"/>
  <path class="fil0" d="M6157.13 4295.4c0,368.12 0,736.34 0,1104.46 0,67.3 104.65,67.51 104.65,0 0,-368.12 0,-736.34 0,-1104.46 0,-67.32 -104.65,-67.4 -104.65,0l0 0z"/>
  <path class="fil0" d="M6269.63 4253.01c317.33,-237.95 635.98,-474.23 953.38,-712.27 337.16,-252.76 673.34,-506.96 1005.33,-766.49 167.78,-131.13 334.48,-263.76 498.69,-399.31 21.82,-18 18.66,-55.37 0,-73.99 -21.57,-21.61 -52.12,-18.1 -73.99,0 -301.44,248.85 -610.68,488.32 -921.46,725.42 -332.93,253.9 -668.41,504.49 -1004.05,754.87 -170.33,127 -340.73,253.99 -510.72,381.4 -22.59,16.98 -34.21,45.28 -18.78,71.63 13,22.23 48.85,35.81 71.61,18.74l0 0z"/>
  <path class="fil0" d="M8644 2362.71c-2.21,46.62 -4.48,93.13 -6.86,139.65 -1.27,25.01 -2.57,50.13 -3.89,75.14 -0.23,4.72 -5.82,29.32 -0.68,14.09 -1.47,4.31 -4.57,12.86 -5.42,14.92 -13.07,31.6 -32.38,63.2 -21.25,98.6 3.17,9.99 8.61,19.15 15.68,26.86 1.76,2.17 3.76,4.12 6.04,5.76 12,9.07 14.17,10.81 6.52,5.14 -6.76,-22.93 -9.82,-26.03 -9.18,-9.14 -0.19,3.29 -0.38,6.67 -0.55,9.97 -0.72,13.49 -1.44,26.96 -2.17,40.35 -2.53,47.03 -5.08,94.05 -7.61,141.09 -0.72,13.58 0.11,29.73 -3.78,40.44 -5.82,15.96 -15,30.69 -18.98,47.34 -5.2,21.82 -1.49,43.43 7.93,63.3 1.19,2.57 7.48,17.7 6.78,12.56 -0.13,-0.83 -1.34,15.21 -1.53,19.04 -2.49,48.36 -4.87,96.83 -7.14,145.19 -3.17,67.32 101.48,67.21 104.65,0 2.21,-46.72 4.5,-93.43 6.88,-140.16 1.27,-24.9 1.74,-46.83 -9.16,-69.78 -1.11,-2.36 -6.16,-14.62 -7.71,-14.62 4.57,-0.08 -3.87,22.23 3.46,1.87 4.25,-11.84 13.13,-27.69 17.3,-41.9 5.93,-20.17 4.84,-42.5 5.97,-63.28 2.51,-47.05 5.06,-94.07 7.59,-141.09 2.21,-40.86 12.22,-87.27 -21.95,-117.83 -26.35,-23.59 11.79,10.79 1.74,20.36 2.74,-2.68 4.25,-12.24 5.63,-15.64 4.76,-11.62 12.56,-27.58 17.76,-41.56 13.81,-36.95 9.48,-83.17 11.45,-122.08 2.47,-48.15 4.85,-96.32 7.12,-144.58 3.17,-67.3 -101.51,-67.21 -104.65,0l0 0z"/>
  <path class="fil0" d="M2838.86 4666.09c404.01,-180.4 829.79,-312.04 1264.35,-394.47 434.6,-82.53 878.69,-114.55 1320.66,-96.02 248.38,10.39 495.87,36.95 740.67,79.98 27.82,4.93 56.4,-7.42 64.37,-36.55 6.95,-25.22 -8.54,-59.37 -36.53,-64.32 -446.59,-78.62 -901.67,-105.38 -1354.34,-78.73 -452.35,26.65 -902.14,104.86 -1336.52,234.12 -244.09,72.67 -482.95,161.79 -715.47,265.61 -25.82,11.54 -31.94,49.11 -18.78,71.65 15.55,26.54 45.69,30.24 71.59,18.72l0 0z"/>
  <path class="fil0" d="M2822.13 4681.62c282.8,-284.25 533.43,-600.79 746.16,-940.6 212.79,-339.94 387.54,-703.83 520.53,-1082.23 74.63,-212.21 135.59,-429.14 182.61,-649.18 14.02,-65.66 -86.82,-93.75 -100.91,-27.79 -82.25,384.69 -207.18,760.44 -372.98,1117.33 -166.48,358.24 -372.28,698.56 -613.27,1011.62 -134.46,174.75 -280.66,340.54 -436.13,496.76 -47.58,47.85 26.41,121.86 73.99,74.09l0 0z"/>
  <path class="fil0" d="M4257.24 2034.62c318.48,-207.18 641.78,-406.91 971.42,-595.86 285.52,-163.64 575.76,-319.24 871.65,-463.2 149.61,-72.86 300.63,-142.65 453.2,-209.13 25.9,-11.22 31.83,-49.19 18.76,-71.52 -15.64,-26.75 -45.58,-30.15 -71.59,-18.83 -278.85,121.44 -552.6,254.29 -821.8,395.7 -310.04,162.91 -614.11,337.14 -913.34,519.09 -188.88,114.85 -375.81,232.89 -561.12,353.41 -56.25,36.53 -3.87,127.2 52.82,90.35l0 0z"/>
  <path class="fil0" d="M6475.91 716.11c-233.52,468.45 -492.46,924.46 -775.69,1364.61 -79.92,124.22 -161.88,247.1 -245.89,368.54 -16.06,23.25 -4.29,58.16 18.79,71.63 25.99,15.23 55.48,4.52 71.61,-18.83 297.7,-430.48 569.9,-878.68 817.76,-1339.62 69.97,-130.09 137.9,-261.3 203.8,-393.45 29.98,-60.09 -60.28,-113.19 -90.37,-52.89l0 0z"/>
  <path class="fil0" d="M2737.82 4571.94c35.11,-651.45 -2.89,-1306.07 -111.62,-1949.27 -30.34,-179.59 -66.4,-358.15 -107.82,-535.56 -8.03,19.76 -16.04,39.42 -24.05,59.18 374.6,-248.34 781.52,-438.51 1198.08,-604.72 392.28,-156.52 791.67,-296.49 1174.49,-475.87 217.44,-101.87 428.57,-216.93 627.97,-350.93 55.63,-37.35 3.29,-128.02 -52.8,-90.35 -350.35,235.35 -735.41,408.66 -1126.81,563.33 -399.99,158.07 -805.55,302.88 -1194.51,487.39 -234.76,111.47 -462.59,237.12 -679.24,380.7 -20.12,13.37 -29.58,35.48 -24.03,59.16 146.28,626.23 222.99,1267.8 228.3,1910.87 1.49,182.06 -2.8,364.23 -12.6,546.08 -3.63,67.3 101.02,67.08 104.65,0l0 0z"/>
  <path class="fil0" d="M5496.04 1257.93c6.27,-194.49 25.18,-388.49 25.52,-583.09 0.11,-67.4 -104.54,-67.51 -104.65,0 -0.34,194.6 -19.25,388.6 -25.52,583.09 -2.19,67.42 102.48,67.32 104.65,0l0 0z"/>
  <path class="fil0" d="M4814.11 1056.75c-16.7,-211.09 -57.24,-419.77 -123.28,-621.08 -8.18,-24.9 -36.85,-47.03 -64.37,-36.53 -250.65,95.2 -496.65,202.95 -741.35,312.34 -229.02,102.5 -456.6,208.09 -682.92,316.36 -452.03,216.21 -901.42,440.47 -1336.79,688.78 -175.07,99.83 -350.56,202.54 -512.09,323.56 -22.68,16.98 -34.31,44.77 -18.77,71.63 183.53,316.14 356.89,638.25 519.53,965.72 162.09,326.34 313.85,657.82 454.26,994.05 79.58,190.58 155.63,382.74 228.24,576.1 9.92,26.45 35.36,44.45 64.36,36.55 25.39,-7.01 46.56,-37.78 36.55,-64.45 -130.08,-346.51 -271.33,-688.79 -423.51,-1026.13 -151.02,-334.78 -312.95,-664.6 -485.45,-988.78 -97.82,-183.91 -199.09,-365.86 -303.6,-545.95 -6.26,23.86 -12.52,47.75 -18.78,71.63 140.62,-105.29 292.16,-196.25 443.9,-284.35 200.65,-116.49 405.18,-226.3 611.08,-333.23 454.83,-236.1 917.06,-458.38 1384.01,-669.34 266.93,-120.63 535.26,-239.58 809.16,-343.53 -21.44,-12.24 -42.9,-24.39 -64.36,-36.63 63.11,192.45 103.59,391.47 119.52,593.29 2.23,28.2 22.46,52.38 52.34,52.38 26.58,0 54.57,-23.97 52.33,-52.38l0 0z"/>
  <path class="fil0" d="M2450.53 4575.72c-235.7,-335.99 -479.72,-666.03 -731.58,-990.01 -251.11,-323.05 -510.23,-639.91 -777.03,-950.19 -150.01,-174.33 -302.48,-346.61 -457.26,-516.82 -3.53,27.37 -7.06,54.74 -10.59,82.11 434.68,-279.4 879.24,-543.46 1332.77,-791.18 453.54,-247.7 915.91,-479.16 1385.98,-693.84 261.98,-119.68 526.34,-234.01 792.92,-343 -19.7,-8.03 -39.39,-16.04 -59.09,-24.08 59.16,104.86 107.22,214.76 143.56,329.53 20.23,64 121.31,36.63 100.91,-27.8 -38.95,-123.09 -90.67,-242.05 -154.12,-354.54 -10.22,-18.1 -38.25,-32.51 -59.07,-24.08 -482.56,197.28 -958.22,411.34 -1425.49,642.48 -463.16,229.19 -918.14,474.93 -1363.75,736.64 -252.22,148.11 -501.4,301.33 -747.45,459.51 -29.24,18.83 -33.89,56.61 -10.58,82.23 274.19,301.44 541.03,609.65 800.05,924.25 256.21,311.21 504.77,628.71 745.33,952.06 137.29,184.61 271.99,371.2 404.11,559.53 16.21,23.05 45.77,33.87 71.61,18.74 22.84,-13.39 35.08,-48.28 18.76,-71.54l0 0z"/>
  <path class="fil0" d="M268.25 3202.17c224.76,-135.04 468.84,-239.18 682.25,-392.72 22.89,-16.47 33.99,-45.58 18.77,-71.63 -13.23,-22.52 -48.53,-35.29 -71.6,-18.72 -213.4,153.54 -457.48,257.69 -682.24,392.7 -57.66,34.68 -5.11,125.24 52.82,90.37l0 0z"/>
  <path class="fil0" d="M6254.47 4398.63c87.91,-74.93 180.41,-144.81 271.31,-215.91 171.54,-134.31 343.74,-267.69 516.2,-400.75 205.24,-158.48 410.87,-316.36 616.94,-473.7 192.39,-146.96 385.14,-293.41 578.74,-438.81 133.12,-99.93 266.16,-200.27 402.09,-296.4 9.94,-6.99 19.91,-13.98 29.9,-20.89 21.99,-15.24 1.1,-51.55 -21.12,-36.12 -125.86,87.18 -248.14,179.68 -370.69,271.39 -189.73,141.92 -378.47,285.16 -566.88,428.82 -208.52,159 -416.59,318.63 -624.27,478.76 -178.54,137.59 -356.86,275.6 -534.56,414.31 -104.44,81.51 -209.64,162.41 -311.81,246.79 -5.18,4.23 -10.35,8.54 -15.47,12.88 -20.53,17.49 9.2,47.02 29.62,29.64l0 0z"/>
  <path class="fil0" d="M6247.44 4539.3c89.76,-76.56 183.57,-148.59 276.03,-221.77 173.5,-137.48 347.65,-274.16 522.02,-410.51 209.11,-163.53 418.6,-326.66 628.59,-489.05 195.23,-151.08 390.83,-301.73 587.4,-450.96 134.34,-102.08 268.52,-204.59 406.11,-302.25 10.03,-7.12 20.1,-14.22 30.2,-21.21 21.99,-15.23 1.08,-51.46 -21.12,-36.12 -127.9,88.61 -251.56,183.5 -375.58,277.34 -192.54,145.72 -383.97,292.89 -575.06,440.47 -210.87,162.91 -421.24,326.45 -631.22,490.49 -182.74,142.73 -365.2,285.78 -547.09,429.55 -105.18,83.17 -211.02,165.7 -314.21,251.31 -5.25,4.33 -10.48,8.65 -15.66,13.07 -20.55,17.51 9.18,47.05 29.6,29.64l0 0z"/>
  <path class="fil0" d="M6247.44 4637.79c89.1,-75.94 182.74,-146.96 274.81,-219.2 172.48,-135.33 345.64,-269.84 519.03,-404.03 207.24,-160.45 414.86,-320.37 622.95,-479.67 194.77,-149.23 389.88,-297.93 585.88,-445.53 133.42,-100.44 266.74,-201.29 403.05,-297.72 10.16,-7.21 20.34,-14.41 30.58,-21.4 21.97,-15.24 1.08,-51.55 -21.14,-36.23 -126.58,87.69 -249.42,180.91 -372.56,273.34 -191.3,143.56 -381.59,288.35 -571.56,433.67 -210.36,160.85 -420.26,322.3 -629.77,484.3 -180.98,139.97 -361.74,280.23 -541.87,421.22 -104.86,82.13 -210.49,163.53 -313.14,248.34 -5.31,4.42 -10.62,8.84 -15.85,13.26 -20.55,17.51 9.18,47.05 29.6,29.64l0 0z"/>
  <path class="fil0" d="M6247.44 4750.28c89.42,-76.16 182.87,-147.89 274.98,-220.76 173.47,-137.37 347.59,-273.86 521.94,-410.1 208.28,-162.81 416.95,-325 626.1,-486.67 194.47,-150.36 389.3,-300.2 585.11,-448.8 133.93,-101.7 267.74,-203.78 404.9,-301.03 10.05,-7.2 20.14,-14.3 30.28,-21.31 21.99,-15.21 1.1,-51.55 -21.12,-36.12 -127.47,88.31 -250.82,182.78 -374.49,276.34 -191.75,145 -382.42,291.43 -572.74,438.3 -210.79,162.7 -421.09,326.02 -631.01,489.85 -181.38,141.52 -362.51,283.44 -543.08,425.96 -105.38,83.25 -211.41,165.89 -314.76,251.63 -5.27,4.31 -10.52,8.65 -15.7,13.17 -20.55,17.49 9.18,46.92 29.6,29.54l0 0z"/>
  <path class="fil0" d="M6247.44 4848.77c90.01,-76.69 184.25,-148.8 277.07,-222.09 174.28,-137.59 349.2,-274.47 524.34,-411.04 209.34,-163.11 419.09,-325.81 629.29,-488 196.53,-151.48 393.38,-302.67 591.23,-452.5 134.1,-101.59 268.08,-203.67 405.35,-300.93 9.99,-7.1 20.04,-14.2 30.11,-21.21 21.99,-15.24 1.1,-51.44 -21.12,-36.12 -127.53,88.42 -251.03,182.78 -374.83,276.22 -193.13,145.83 -385.16,293 -576.86,440.68 -211.72,163.02 -422.94,326.64 -633.79,490.79 -182.96,142.43 -365.63,285.18 -547.76,428.74 -105.92,83.47 -212.55,166.32 -316.44,252.33 -5.42,4.44 -10.82,8.97 -16.17,13.49 -20.55,17.49 9.18,47.03 29.6,29.64l0 0z"/>
  <path class="fil0" d="M6240.41 4954.25c88.67,-75.54 181.32,-146.76 272.62,-219.1 170.8,-135.23 342.21,-269.73 513.86,-403.94 204.99,-160.24 410.38,-320.05 616.24,-479.25 193.13,-149.34 386.61,-298.25 581.07,-445.82 132.85,-100.87 265.57,-202.12 401.63,-298.55 9.88,-6.99 19.8,-14 29.75,-20.89 21.99,-15.24 1.1,-51.57 -21.12,-36.12 -126.07,87.27 -248.06,180.7 -370.37,273.22 -190.43,143.98 -379.74,289.39 -568.73,435.33 -207.54,160.24 -414.57,321.09 -621.21,482.46 -179.23,139.94 -358.21,280.23 -536.62,421.22 -104.04,82.23 -208.71,163.83 -310.77,248.44 -5.36,4.42 -10.69,8.95 -15.96,13.37 -20.53,17.49 9.18,47.03 29.6,29.64l0 0z"/>
  <path class="fil0" d="M6254.47 5052.74c89.59,-76.37 182.19,-149.45 273.83,-223.33 171.8,-138.42 344.11,-276.32 516.67,-413.8 206.09,-164.36 412.57,-328.08 619.58,-491.21 193.92,-152.93 388.22,-305.24 583.73,-456.11 132.63,-102.4 265.16,-205.31 401.65,-302.56 10.05,-7.2 20.14,-14.3 30.28,-21.29 22.01,-15.34 1.11,-51.57 -21.12,-36.23 -126.99,87.99 -249.12,183.4 -371.6,277.45 -190.56,146.45 -379.87,294.53 -568.77,443.15 -208.83,164.26 -417.12,329.21 -624.97,494.7 -180.85,143.98 -361.42,288.35 -541.51,433.27 -104.25,83.87 -208.96,167.33 -311.68,253.16 -5.25,4.33 -10.48,8.75 -15.7,13.18 -20.53,17.49 9.2,47.02 29.62,29.64l0 0z"/>
  <path class="fil0" d="M6240.41 5151.23c89.39,-76.26 181.95,-148.91 273.43,-222.6 171.93,-138.52 344.25,-276.62 516.6,-414.63 204.65,-163.94 409.42,-327.68 614.18,-491.43 190.6,-152.5 381.21,-304.92 571.7,-457.43 129.64,-103.84 259.36,-207.58 388.47,-312.15 9.35,-7.61 18.72,-15.23 28.09,-22.84 20.91,-16.98 -8.88,-46.41 -29.6,-29.54 -118.04,95.92 -236.88,190.9 -355.6,286.1 -186.18,149.12 -372.51,298.14 -558.85,447.16 -205.54,164.45 -411.1,328.81 -616.58,493.25 -178.28,142.75 -356.51,285.59 -534.43,428.74 -104.08,83.66 -208.69,166.93 -311.28,252.44 -5.25,4.42 -10.52,8.86 -15.74,13.28 -20.53,17.49 9.18,47.02 29.6,29.64l0 0z"/>
  <path class="fil0" d="M6214.95 5301.88c167.23,-122.56 328.44,-253.06 482.86,-391.47 157.09,-140.69 314.33,-279.42 478.72,-411.66 319.28,-256.99 630.75,-523.51 944.3,-787.38 175.64,-147.89 351.95,-294.96 530.8,-439.02 20.99,-16.87 -8.8,-46.32 -29.6,-29.54 -317.9,255.94 -627.88,521.45 -940.14,784.3 -153.86,129.45 -308.19,258.3 -464.35,384.99 -162.21,131.53 -322.9,263.44 -477.55,403.84 -174.88,158.88 -355.58,310.17 -546.18,449.82 -21.5,15.74 -0.64,52.08 21.14,36.12l0 0z"/>
  <path class="fil0" d="M2819.18 4727.74c188.54,-95.6 393.13,-152.21 598.48,-198.83 216.51,-49.19 434.56,-92.41 653.58,-128.75 439.77,-73.05 886.17,-115.15 1332.24,-99 252.54,9.16 504.09,37.35 751.83,87.38 26.3,5.36 37.57,-35 11.13,-40.35 -443.36,-89.52 -897.51,-108.88 -1348.2,-78.92 -451.82,30.04 -899.32,107.14 -1341.29,203.54 -232.76,50.85 -465.38,110.54 -678.91,218.8 -24.01,12.26 -2.85,48.38 21.14,36.12l0 0z"/>
  <path class="fil0" d="M2940.58 4642.74c477.95,-73.08 957.84,-152.31 1440.7,-185.36 330.46,-22.63 659.67,-8.75 989.46,18.1 263.55,21.42 526.76,46.94 790.14,70.18 26.84,2.38 26.67,-39.5 0,-41.88 -416.05,-36.74 -832.72,-85.1 -1250.46,-98.28 -352.27,-11.01 -702.36,19.15 -1051.59,63.2 -310.51,39.31 -620.02,86.33 -929.36,133.67 -26.56,4.02 -15.28,44.37 11.11,40.35l0 0z"/>
  <path class="fil0" d="M2869.86 4734.73c434.35,40.54 867.28,95.6 1297.69,166.83 422.15,69.67 841.71,154.59 1258.34,252.14 239.73,56.1 478.51,116.29 716.39,179.79 26.05,6.99 37.16,-33.34 11.11,-40.33 -423.41,-113 -849.62,-215.51 -1278.99,-303.29 -417.78,-85.42 -838.38,-156.64 -1261.04,-213.04 -247.25,-32.91 -495.16,-60.81 -743.5,-83.98 -26.84,-2.47 -26.65,39.42 0,41.88l0 0z"/>
  <path class="fil0" d="M2928.19 4690.78c160.17,-4.21 321.37,9.77 480.84,22.86 237.41,19.55 474.38,44.96 710.99,72.54 265.16,30.98 529.95,65.15 794.31,102.19 242.92,34.17 485.54,70.5 727.37,111.56 171.29,29.13 343.32,58.67 512.08,100.44 14.03,3.51 28.03,7.1 41.97,10.92 26.05,6.99 37.17,-33.36 11.13,-40.35 -157.56,-42.71 -319.5,-70.59 -480.12,-98.6 -237.03,-41.46 -474.96,-77.69 -713.12,-111.75 -263.85,-37.78 -528.12,-72.57 -792.76,-104.35 -242.92,-29.13 -486.2,-55.88 -729.94,-77.39 -172.75,-15.34 -346.7,-30.58 -520.28,-30.47 -14.17,0 -28.33,0.21 -42.48,0.51 -26.88,0.72 -27.01,42.6 0,41.88l0 0z"/>
  <path class="fil0" d="M3019.3 4698.81c408.38,-52.78 820.91,-65.04 1232.12,-47.53 413.57,17.49 825.37,64.21 1234.67,124.92 234.42,34.78 468.11,74.2 701.47,115.47 26.33,4.74 37.65,-35.61 11.11,-40.33 -413.29,-73.08 -827.88,-140.26 -1245.12,-186.7 -410.44,-45.58 -823.67,-70.8 -1236.73,-60.62 -233.23,5.78 -466.12,22.97 -697.52,52.91 -26.33,3.49 -26.69,45.39 0,41.88l0 0z"/>
  <path class="fil0" d="M2947.1 4688.32c212.74,-52.49 432.67,-74.82 650.85,-89.84 261.09,-17.81 523.04,-22.33 784.68,-20.67 259.62,1.53 519.2,9.67 778.52,21.91 211.32,10.09 422.49,22.95 633.45,38.69 116.53,8.65 233.08,17.81 349.37,29.43 5.63,0.51 11.26,1.15 16.89,1.66 26.75,2.87 26.56,-39.01 0,-41.77 -101.7,-10.92 -203.78,-18.64 -305.73,-26.56 -202.89,-15.75 -406,-28.71 -609.25,-39.1 -257.16,-13.19 -514.54,-22.25 -772.04,-25.33 -264.74,-3.19 -529.78,-0.41 -794.14,14.83 -225.56,12.96 -452.67,33.23 -673.95,80.36 -23.35,4.93 -46.62,10.29 -69.8,16.04 -26.14,6.5 -15.06,46.83 11.13,40.35l0 0z"/>
  <path class="fil0" d="M295.54 3171.48c526.38,129.98 995.1,414.65 1434.83,723.08 125.03,87.67 248.38,177.72 371.62,267.97 21.76,15.85 42.67,-20.38 21.12,-36.23 -437.75,-320.37 -882.26,-643.72 -1386.31,-852.83 -139.68,-57.94 -283.28,-106.1 -430.13,-142.32 -26.16,-6.48 -37.31,33.85 -11.13,40.33l0 0z"/>
  <path class="fil0" d="M328.47 3314.96c488.68,174.75 954.12,412.68 1405.22,667.71 124.63,70.38 248.27,142.73 371.07,216.31 23.14,13.88 44.22,-22.33 21.12,-36.12 -449.16,-269.33 -909.97,-523.1 -1390.96,-731.3 -130.13,-56.4 -261.8,-109.18 -395.33,-156.95 -25.41,-9.16 -36.35,31.3 -11.13,40.35l0 0z"/>
  <path class="fil0" d="M311.59 3473.75c504.36,106.71 963.53,349.8 1412.51,594.31 138.08,75.24 276.09,150.67 414.14,225.9 23.65,12.96 44.79,-23.16 21.12,-36.12 -238.69,-130.19 -476.32,-262.74 -717.44,-388.39 -226.92,-118.25 -458.56,-228.98 -699.63,-315.63 -137.08,-49.3 -277.02,-90.26 -419.57,-120.42 -26.28,-5.55 -37.52,34.78 -11.13,40.35l0 0z"/>
  <path class="fil0" d="M284.19 3653.64c286.94,39.53 560.74,138.82 824.17,256.24 247.45,110.33 489.69,232.7 732.8,352.18 133.21,65.55 266.38,131.1 399.95,195.93 24.14,11.73 45.37,-24.39 21.12,-36.12 -239.26,-116.08 -477.36,-234.63 -716.45,-351.14 -254.5,-123.9 -509.77,-249.46 -777.91,-341.55 -153.69,-52.8 -311.42,-93.77 -472.54,-115.89 -26.34,-3.59 -37.74,36.74 -11.13,40.35l0 0z"/>
  <path class="fil0" d="M272.53 3780.84c537.58,164.04 1067.51,353.1 1587.48,566.54 146.87,60.3 292.92,122.56 438.15,186.78 24.41,10.8 45.75,-25.33 21.14,-36.12 -515.8,-227.96 -1042,-432.01 -1576.77,-610.89 -152.3,-50.93 -305.28,-99.83 -458.87,-146.66 -25.82,-7.93 -36.87,32.53 -11.13,40.35l0 0z"/>
  <path class="fil0" d="M225.37 3954.15c538.18,125.64 1069.7,279.4 1591.64,461.04 147.53,51.36 294.28,104.89 440.21,160.54 25.18,9.69 36.1,-30.77 11.13,-40.33 -516.33,-196.98 -1042.91,-366.88 -1577.14,-508.38 -151,-40.03 -302.61,-77.71 -454.73,-113.21 -26.21,-6.06 -37.4,34.27 -11.13,40.35l0 0z"/>
  <path class="fil0" d="M6773.99 1289.32c292.26,-77.5 355.11,-140.37 432.67,-432.63 77.54,292.26 140.39,355.13 432.65,432.63 -292.26,77.6 -355.11,140.47 -432.65,432.65 -77.56,-292.17 -140.41,-355.05 -432.67,-432.65z"/>
  <path class="fil0" d="M7657.16 912.98c135.48,-35.91 164.64,-65.15 200.57,-200.57 35.95,135.42 65.09,164.66 200.57,200.57 -135.48,35.91 -164.61,65.04 -200.57,200.57 -35.93,-135.52 -65.08,-164.66 -200.57,-200.57z"/>
  <path class="fil0" d="M7691.41 1548.26l68.29 0 0 68.34c0,20.17 31.39,20.27 31.39,0l0 -68.34 63.62 0c20.19,0 20.23,-31.39 0,-31.39l-63.62 0 0 -58.86c0,-20.29 -31.39,-20.29 -31.39,0l0 58.86 -68.29 0c-20.19,0 -20.23,31.39 0,31.39z"/>
  <path class="fil0" d="M7329.33 424.25l68.27 0 0 68.23c0,20.17 31.41,20.27 31.41,0l0 -68.23 63.6 0c20.19,0 20.23,-31.38 0,-31.38l-63.6 0 0 -58.99c0,-20.16 -31.41,-20.27 -31.41,0l0 58.99 -68.27 0c-20.21,0 -20.25,31.38 0,31.38z"/>
  <path class="fil0" d="M4175.01 178.19c-66.04,-124.84 -215.76,-193.28 -353.86,-175.37 -40.95,5.36 -80.11,17.81 -116.19,38.08 -28.88,16.15 -2.97,60.6 25.99,44.35 104.76,-58.75 244.96,-38.69 335.63,39.2 26.28,22.54 47.79,49 64,79.66 15.49,29.32 59.92,3.29 44.43,-25.93z"/>
  <path class="fil0" d="M236.29 2481.68c-100.35,-111.66 -140.01,-273.54 -109.41,-419.9 8.85,-42.28 23.22,-83.15 43.56,-121.33 15.55,-29.22 -28.86,-55.25 -44.43,-26.03 -79.61,149.63 -78.86,333.84 -5.6,485.75 20.69,42.9 47.69,82.53 79.5,117.93 22.18,24.71 58.47,-11.84 36.38,-36.42z"/>
  <path class="fil0" d="M6645.92 453.17c-12.58,-5.89 -27.73,-3.61 -35.19,9.24 -6.52,11.13 -3.44,29.24 9.22,35.21 108.41,50.32 179.73,164.45 175.84,284.14 -1.09,33.12 50.38,33.12 51.44,0 4.44,-136.16 -77.45,-271.07 -201.31,-328.59z"/>
 </g>
</svg>
