<?xml version="1.0" encoding="UTF-8"?>
<!DOCTYPE svg PUBLIC "-//W3C//DTD SVG 1.1//EN" "http://www.w3.org/Graphics/SVG/1.1/DTD/svg11.dtd">
<!-- Creator: CorelDRAW -->
<svg xmlns="http://www.w3.org/2000/svg" xml:space="preserve" width="340.472mm" height="221.571mm" version="1.1" style="shape-rendering:geometricPrecision; text-rendering:geometricPrecision; image-rendering:optimizeQuality; fill-rule:evenodd; clip-rule:evenodd"
viewBox="0 0 10851.9 7062.15"
 xmlns:xlink="http://www.w3.org/1999/xlink"
 xmlns:xodm="http://www.corel.com/coreldraw/odm/2003">
 <defs>
  <style type="text/css">
   <![CDATA[
    .fil0 {fill:#FEFEFE;fill-rule:nonzero}
   ]]>
  </style>
 </defs>
 <g id="Camada_x0020_1">
  <metadata id="CorelCorpID_0Corel-Layer"/>
  <path class="fil0" d="M5548.98 1384.18c-519.33,-190.3 -1080.54,-271.54 -1632.35,-227.87 -539.32,42.7 -1069.88,202.91 -1532.59,485.48 -264.57,161.54 -505.36,361.9 -711.89,593.02 -48.91,54.72 31.69,135.86 80.85,80.86 355.22,-397.51 810.3,-695.91 1314.21,-868.99 501.87,-172.36 1040.12,-222.97 1566.66,-163.49 301.91,34.13 599.54,106.75 884.71,211.27 28.98,10.61 62.61,-11.93 70.32,-39.96 8.75,-31.88 -10.84,-59.64 -39.93,-70.32l0 0z"/>
  <path class="fil0" d="M1719.3 2323.05c295.51,486.68 585.89,976.48 871.01,1469.34 285.1,492.84 564.97,988.72 839.51,1487.54 154.29,280.38 306.92,561.72 457.87,843.89 17.41,32.57 64.66,36.98 89.8,11.59 340.61,-344.14 706.8,-666.96 1113.92,-930.68 405.03,-262.39 861.38,-474.24 1346.39,-523.74 275.6,-28.14 552.3,-2.14 816.92,80.35 70.41,21.96 100.55,-88.41 30.39,-110.26 -486.43,-151.65 -1003.51,-110.02 -1478.47,62.75 -480.21,174.73 -912.17,461.1 -1304.69,784.39 -211.66,174.33 -412.49,361.48 -605.32,556.34 29.93,3.85 59.88,7.71 89.8,11.56 -268.59,-502.06 -542.43,-1001.3 -821.61,-1497.53 -279.18,-496.23 -563.65,-989.48 -853.35,-1479.67 -162.82,-275.51 -327.33,-550.04 -493.45,-823.6 -38.14,-62.8 -137.07,-5.41 -98.72,57.72l0 0z"/>
  <path class="fil0" d="M5507.05 1400.2c225.18,432.75 463.77,858.26 703.02,1283.33 241.2,428.55 482.46,857.18 710.68,1292.83 134.35,256.5 264.16,515.36 387.95,777.1 13.21,27.93 53.23,35.15 78.22,20.52 28.58,-16.72 33.78,-50.19 20.52,-78.22 -216.19,-457.18 -451.33,-904.95 -695.15,-1347.92 -234.76,-426.53 -476.98,-848.91 -712.86,-1274.79 -134.05,-241.98 -265.95,-485.18 -393.64,-730.57 -33.96,-65.31 -132.68,-7.54 -98.74,57.72l0 0z"/>
  <path class="fil0" d="M5651.13 1377.54c245.86,-361.83 618.51,-647.92 1022.59,-812.06 101.46,-41.21 205.93,-75.11 312.61,-99.76 106.03,-24.49 212.89,-35.98 321.15,-45.22 226.15,-19.34 453.51,-29.04 678.06,-64.06 249.3,-38.89 487.01,-119.98 703.88,-249.88 -26.09,-6.85 -52.14,-13.67 -78.24,-20.5 285.79,399.37 575.26,796.23 849.51,1203.7 276.81,411.26 539.25,833.56 761.8,1276.93 120.93,240.94 229.45,487.99 319.85,742.04 10.35,29.07 39,48.55 70.34,39.93 28.14,-7.75 50.33,-41.09 39.91,-70.34 -164.69,-462.84 -386.81,-903.28 -636.08,-1325.94 -253.71,-430.13 -535.6,-842.89 -824.18,-1250.18 -159.7,-225.41 -321.66,-449.21 -482.41,-673.85 -17.81,-24.91 -49.68,-37.59 -78.22,-20.53 -193.93,116.15 -404.13,190.89 -626.47,230.05 -217.47,38.31 -439.09,47.06 -658.84,65.01 -116.8,9.54 -233.67,19.64 -348.64,43.41 -106.68,22.08 -211.34,53.63 -313.05,92.61 -214.5,82.16 -416.97,194.51 -600.65,332.39 -204.96,153.83 -387.37,336.22 -531.66,548.54 -41.49,61.03 57.55,118.31 98.74,57.72l0 0z"/>
  <path class="fil0" d="M7473.69 4728.5c327.47,-302.77 686,-568.34 1064.8,-803.26 189.61,-117.57 382.35,-232.61 585.68,-325.05 200.7,-91.22 412.3,-160.73 629,-201.94 241.87,-46.02 492.82,-53.88 735.84,-11.66 30.39,5.29 61.59,-8.12 70.32,-39.91 7.57,-27.56 -9.34,-65.03 -39.93,-70.35 -455.76,-79.21 -922.43,2.51 -1346.39,178.91 -214.59,89.31 -415.99,203.35 -614.51,323.64 -193.35,117.15 -382.31,241.64 -564.83,375.09 -209.39,153.11 -410.35,317.58 -600.82,493.67 -54.17,50.08 26.86,130.78 80.84,80.86l0 0z"/>
  <path class="fil0" d="M1739.1 2302.9c2.6,5.18 5.04,10.45 7.52,15.67 1.05,2.23 1.98,4.5 3,6.75 5.31,11.63 -3.62,-9.15 -0.52,-1.18 5.13,13.16 10.17,26.35 14.73,39.72 10.36,30.41 19.11,61.36 26.84,92.54 8.56,34.5 15.82,69.32 22,104.31 7.28,41.26 10.59,65.03 14.49,103.17 7.84,76.52 10.66,154.02 3.9,230.73 -0.71,8.29 -1.62,16.57 -2.56,24.84 -0.31,2.72 -2.04,14.63 -0.45,3.69 -0.51,3.55 -1.01,7.08 -1.61,10.61 -2.91,17.02 -6.13,33.94 -10.38,50.68 -3.59,14.14 -7.76,28.12 -12.76,41.81 -1.59,4.36 -3.25,8.71 -5.01,13.02 0.74,-1.83 4.89,-10.66 0.36,-1.14 -3.15,6.64 -6.32,13.26 -9.88,19.71 -4.11,7.45 -8.72,14.49 -13.39,21.59 -8.17,12.44 4.41,-3.25 -6.16,7.61 -5.05,5.2 -10.28,10.17 -15.4,15.3 -2.63,2.62 -10.46,7.66 0.98,-0.4 -3.17,2.23 -6.31,4.46 -9.59,6.55 -5.49,3.44 -11.24,6.36 -17.05,9.24 14.56,-7.2 -7.84,2.32 -12.49,3.53 -4.73,1.2 -24.89,3.57 -9.41,2.3 -8.93,0.74 -17.74,1.04 -26.7,0.84 -73.62,-1.81 -73.59,112.55 0,114.34 159.48,3.9 236.48,-141.16 257.97,-279.9 25.63,-165.56 7.39,-338.52 -29.13,-501.13 -16.3,-72.6 -37.01,-145.82 -70.57,-212.52 -33.08,-65.77 -131.76,-7.92 -98.73,57.69l0 0z"/>
  <path class="fil0" d="M1630.18 3264.87c286.63,441.69 565.27,888.54 836.89,1339.61 277.97,461.61 548.6,927.61 811.67,1397.86 146.82,262.41 291.21,526.15 433.06,791.26 34.73,64.91 133.47,7.22 98.74,-57.69 -252.52,-471.97 -513.11,-939.57 -780.93,-1403.02 -268.43,-464.42 -544.05,-924.66 -827.26,-1380.22 -155.41,-250.02 -313.17,-498.57 -473.42,-745.5 -39.91,-61.52 -138.94,-4.27 -98.74,57.69l0 0z"/>
  <path class="fil0" d="M3865.35 6089.17c-13.91,234.39 -48.41,468.27 -50.54,703.29 -0.67,73.6 113.69,73.64 114.34,0 2.14,-235.02 36.63,-468.9 50.54,-703.29 4.37,-73.5 -109.97,-73.27 -114.34,0l0 0z"/>
  <path class="fil0" d="M3928.54 6841.82c403.59,-299.49 784.76,-628.79 1201.12,-911.08 204.72,-138.84 417.43,-261.7 643.86,-361.64 246.79,-108.91 504.77,-194.83 768.95,-249.88 296.45,-61.76 601.26,-80.82 902.45,-46.16 30.72,3.53 57.18,-28.81 57.18,-57.16 0,-33.85 -26.37,-53.65 -57.18,-57.18 -547.95,-63.08 -1103.34,52.75 -1609.76,260.84 -234.9,96.53 -457.9,212.55 -670.79,351.03 -218,141.78 -425.81,298.61 -631.16,457.94 -220.86,171.41 -437.86,347.94 -662.39,514.57 -24.75,18.36 -37.31,49.5 -20.52,78.19 14.3,24.42 53.28,39.03 78.24,20.52l0 0z"/>
  <path class="fil0" d="M7347.02 4753.28c5.53,8.33 10.36,17.09 14.88,26 2.9,5.71 5.64,11.49 8.31,17.3 1.49,3.2 9.26,21.1 4.99,10.91 14,33.41 26,67.72 36.89,102.24 25.63,81.33 46.04,166.39 54.75,250.25 3.2,30.71 24.01,57.18 57.18,57.18 28.44,0 60.39,-26.28 57.16,-57.18 -9.89,-95.33 -30.02,-189.24 -58.81,-280.64 -19.5,-61.76 -40.54,-129.34 -76.61,-183.78 -17.04,-25.72 -50.5,-36.71 -78.22,-20.5 -25.54,14.93 -37.65,52.38 -20.52,78.22l0 0z"/>
  <path class="fil0" d="M7564.44 5164.11c269.4,-318.16 625.33,-552.6 986.6,-753.79 182.78,-101.81 369.98,-204.98 564.83,-281.87 189.7,-74.87 388.06,-121.45 589.26,-152.72 235.13,-36.56 472.31,-58.13 707.19,-96.83 30.51,-5.04 47.5,-42.81 39.96,-70.35 -8.91,-32.36 -39.77,-44.95 -70.35,-39.91 -413.79,68.19 -839.51,82.56 -1237.13,227.06 -202.91,73.71 -395.51,176.37 -584.87,279.25 -188.08,102.18 -372.25,212.27 -546.79,336.31 -193.02,137.19 -376.15,290.85 -529.54,471.99 -19.94,23.56 -23.12,57.76 0,80.86 20.45,20.45 60.8,23.66 80.84,0l0 0z"/>
  <path class="fil0" d="M10523.58 3355.63c-98.3,42.16 -165.23,139.49 -177.65,244.38 -12.98,109.51 41.51,215.31 128.41,279.5 24.86,18.34 63.82,4.11 78.24,-20.5 16.99,-29.09 4.41,-59.85 -20.52,-78.24 -51.29,-37.87 -81.91,-113.3 -72.32,-176.21 1.3,-8.55 9.01,-36.17 12.82,-44.95 1.32,-3.04 7.27,-14.58 10.91,-20.85 2.58,-4.46 5.34,-8.85 8.2,-13.14 1.02,-1.56 7.85,-11.31 3.78,-5.97 24.54,-32.36 48.75,-49.38 85.85,-65.29 28.4,-12.17 34.73,-53.93 20.52,-78.24 -17.18,-29.35 -49.75,-32.71 -78.24,-20.5l0 0z"/>
  <path class="fil0" d="M1804.5 3121.84c281.93,448.84 555.28,903.07 819.67,1362.46 263.51,457.78 518.15,920.67 763.77,1388.29 138.56,263.74 274.19,529.01 406.98,795.7 13.14,26.33 52.61,3.18 39.49,-23.1 -236.27,-474.48 -481.6,-944.4 -736.01,-1409.4 -253.52,-463.38 -516.01,-921.88 -787.2,-1375.13 -152.97,-255.66 -308.75,-509.63 -467.21,-761.89 -15.62,-24.86 -55.2,-1.95 -39.5,23.08l0 0z"/>
  <path class="fil0" d="M1891.33 3027.86c271.59,433.8 530.47,875.44 782.34,1320.94 255.57,452.05 503.89,908.16 749.5,1365.68 135.05,251.57 269.26,503.59 403.46,755.63 13.84,26 53.33,2.93 39.49,-23.08 -240.59,-451.91 -481.34,-903.75 -726.67,-1353.12 -248.81,-455.69 -502.17,-908.97 -765.09,-1356.7 -144.54,-246.11 -292.04,-490.51 -443.51,-732.45 -15.59,-24.89 -55.18,-1.95 -39.51,23.1l0 0z"/>
  <path class="fil0" d="M1896.12 2833.93c264.05,441.48 535.36,878.58 801.7,1318.69 262.39,433.61 519.33,870.66 758.87,1317.37 140.6,262.16 275.12,527.55 402.53,796.35 12.61,26.58 52.05,3.41 39.51,-23.08 -222.62,-469.65 -467.6,-928.17 -726.49,-1378.75 -251.85,-438.35 -516.08,-869.41 -779.82,-1300.68 -153.16,-250.43 -306.13,-501.03 -456.81,-753 -15.09,-25.24 -54.66,-2.25 -39.5,23.1l0 0z"/>
  <path class="fil0" d="M3953.36 6262.46c384.3,-339.8 766.42,-687.14 1202.24,-960.93 435.07,-273.35 920.53,-455.65 1433.68,-505.58 286.05,-27.83 575.7,-15.51 857.62,40.95 28.74,5.76 41.05,-38.33 12.17,-44.11 -506.21,-101.39 -1035.31,-63.8 -1526.6,91.98 -497.39,157.73 -936.71,442.62 -1340.58,767.49 -230.05,185.04 -449.77,382.35 -670.86,577.86 -22.1,19.53 10.35,51.77 32.34,32.34l0 0z"/>
  <path class="fil0" d="M3916.38 6444.76c361.73,-356.19 755.7,-682.33 1188.68,-948.65 214.29,-131.8 438.07,-249.04 670.86,-344.69 242.91,-99.81 493.84,-180.86 756.65,-203.7 306.8,-26.7 614.77,5.59 921.95,4.04 29.44,-0.16 29.51,-45.9 0,-45.73 -277.92,1.42 -555.89,-24.63 -833.77,-10.15 -137.39,7.17 -274.58,24.89 -408.12,58.48 -125.18,31.48 -248.12,74.39 -368.45,120.91 -473.45,182.95 -909.59,451.44 -1308.89,762.89 -228.38,178.12 -444.92,371.09 -651.24,574.26 -21.01,20.69 11.33,53 32.34,32.34l0 0z"/>
  <path class="fil0" d="M3933.56 6617.32c306.67,-399.67 739.14,-690.99 1164,-951.62 449.72,-275.86 932.42,-493.7 1453.9,-589.63 300.4,-55.3 611.59,-62.61 908.04,18.6 28.42,7.8 40.56,-36.31 12.17,-44.09 -264.29,-72.41 -540.18,-76.13 -810.34,-38.4 -271.89,37.94 -541.2,113.11 -796.81,212.62 -246.72,96.07 -482.67,217.74 -710.01,353.05 -223.09,132.77 -441.64,275.81 -649.46,431.52 -226.54,169.78 -438.16,359.62 -610.98,584.84 -17.92,23.36 21.8,46.16 39.49,23.1l0 0z"/>
  <path class="fil0" d="M7510.91 4854.36c124.88,-179.32 294.2,-324.8 468.79,-454 174.43,-129.08 358.35,-246.23 542.52,-360.85 381.95,-237.69 808.3,-419.8 1249.83,-510.23 218.77,-44.81 445.64,-66.4 667.98,-37.1 29.09,3.83 28.79,-41.95 0,-45.76 -199.94,-26.33 -403.52,-11 -601.47,23.77 -221.67,38.96 -438.61,103.99 -648.23,185.41 -217.21,84.37 -427.76,186.52 -627.91,305.88 -188.54,112.41 -374.48,233.05 -552.92,360.88 -200.7,143.8 -395.98,304.81 -538.08,508.93 -16.88,24.21 22.75,47.11 39.49,23.08l0 0z"/>
  <path class="fil0" d="M7519.17 4994.33c287.98,-310.42 604.37,-596.73 958.24,-830.54 364.29,-240.71 767.7,-423.56 1195.97,-513.85 243.49,-51.33 493.09,-71.09 741.49,-54.86 -3.83,-14.21 -7.68,-28.42 -11.54,-42.63 -17.48,9.96 -34.96,19.94 -52.45,29.93 -25.56,14.58 -2.55,54.12 23.08,39.49 17.48,-9.98 34.99,-19.94 52.47,-29.93 20.69,-11.79 10.19,-41.21 -11.56,-42.62 -447.57,-29.23 -897.08,59.53 -1310.8,229.05 -399.32,163.6 -763.85,401.15 -1092.71,679.17 -185.38,156.78 -359.46,326.49 -524.53,504.45 -20.01,21.57 12.26,53.98 32.34,32.34l0 0z"/>
  <path class="fil0" d="M7550.28 5061.75c290.83,-289.79 604.51,-558.45 950.85,-780.12 353.84,-226.43 741.42,-401.99 1152.18,-494.46 233.23,-52.49 472.17,-76.87 711.19,-68.74 29.44,1 29.42,-44.74 0,-45.74 -430.11,-14.65 -858.73,76.55 -1255.77,239.39 -386.11,158.38 -740.84,383.28 -1065.64,644.02 -183.9,147.63 -358.14,306.9 -525.15,473.31 -20.9,20.8 11.45,53.15 32.34,32.34l0 0z"/>
  <path class="fil0" d="M2669.68 2746.29c187.31,-76.34 374.78,-152.37 562.58,-227.52 172.15,-68.86 344,-140.51 519.26,-201.19 10.22,-3.53 20.45,-7.06 30.79,-10.17 3.46,-1.05 15.28,-2.14 17.64,-4.67 -2.51,2.67 -9.17,-1.97 -12.52,-2.04 -5.9,-0.07 -1.67,-4.23 0.42,1.14 1.09,2.86 4.87,5.92 2.6,2.97 2.65,3.41 5.09,6.99 7.55,10.54 32.59,47.25 59.87,98.53 87.57,148.73 90.62,164.02 176.03,330.97 260.12,498.43 38.12,75.96 75.9,152.11 112.65,228.75 20.83,43.46 46.09,93.17 60.8,133.19 0.86,2.25 1.44,4.97 2.55,7.08 2.49,4.67 -0.53,3.5 1.12,2.65 0.98,-0.51 2.81,-21.06 9.4,-19.71 -0.86,-0.18 -3.37,2.21 -4.3,2.48 -14.04,4.23 -28.23,13.49 -41.67,19.41 -57.69,25.47 -116.09,49.36 -174.45,73.2 -173.4,70.83 -347.87,139.39 -523.44,204.7 -77.73,28.93 -155.69,57.37 -234.44,83.33 -27.44,9.03 -55.02,17.85 -82.91,25.58 -10.45,2.86 -20.94,5.66 -31.57,7.96 -3.81,0.81 -7.66,1.6 -11.52,2.3 -7.89,1.39 0.58,-0.33 -5.43,0.74 -1.25,0.21 -5.99,-0.56 -6.8,0.14 2.37,-2.07 4.64,3.02 10.29,4.97 -3.78,-1.32 0.65,1.72 -0.33,-0.19 -1.44,-2.79 -3.76,-5.36 -5.48,-7.96 -12.98,-19.62 -25.12,-39.82 -37.22,-59.97 -45.95,-76.5 -90.15,-154.09 -133.89,-231.86 -110.09,-195.76 -218.65,-393.4 -313.7,-596.99 -17.5,-37.54 -34.5,-75.34 -49.71,-113.83 -10.7,-27.07 -54.95,-15.28 -44.11,12.17 80.19,203.05 188.59,396.35 293.41,587.42 52.12,94.98 105.19,189.45 159.59,283.15 29.14,50.17 56.88,102.8 90.87,149.96 21.82,30.25 58.9,16.46 89.71,8.26 66.03,-17.55 130.69,-40.7 195,-63.57 183.99,-65.33 366.01,-136.42 547.21,-209.07 75.15,-30.13 150.16,-60.64 224.78,-92.1 36.05,-15.21 79.17,-27.86 111.86,-49.92 29.79,-20.11 1.37,-62.5 -9.38,-86.53 -28.23,-63.17 -58.71,-125.37 -89.2,-187.47 -86.71,-176.77 -176.12,-352.31 -268.71,-526.08 -36.68,-68.79 -73.64,-137.53 -113.23,-204.72 -12.17,-20.66 -24.4,-41.44 -38.26,-61.04 -8.59,-12.14 -18.41,-28.34 -34.34,-30.99 -14.16,-2.37 -31.46,5.46 -44.6,9.78 -28.16,9.28 -56.02,19.62 -83.81,29.97 -90.71,33.76 -180.81,69.21 -270.82,104.78 -212.01,83.74 -423.35,169.22 -634.5,255.08 -36.54,14.86 -73.09,29.74 -109.61,44.62 -26.91,10.98 -15.14,55.23 12.17,44.11l0 0z"/>
  <path class="fil0" d="M2759.13 2146.26c142.04,-84.21 296.24,-147.68 450.05,-206.74 153.71,-59.06 309.59,-112.23 465.72,-164.56 27.77,-9.29 15.86,-53.49 -12.17,-44.11 -159.06,53.3 -317.88,107.51 -474.43,167.9 -154.48,59.6 -309.55,123.39 -452.25,208.02 -25.31,15 -2.32,54.56 23.08,39.49l0 0z"/>
  <path class="fil0" d="M2917.75 2267.7c34.78,-25.35 74.27,-44.69 112.69,-63.82 59.55,-29.63 120.28,-57 181.3,-83.49 129.78,-56.37 261.49,-109.28 395.31,-155.25 48.34,-16.58 97.67,-34.17 148.14,-43 28.93,-5.06 16.67,-49.15 -12.17,-44.11 -107.93,18.85 -214.22,65.33 -315.77,104.75 -133.59,51.89 -266.36,107.12 -395.4,169.57 -46.62,22.59 -95.16,45.2 -137.19,75.85 -23.56,17.18 -0.76,56.88 23.08,39.49l0 0z"/>
  <path class="fil0" d="M4152.84 2446.5c391.61,-180.9 816.59,-314.86 1248.11,-349.48 29.14,-2.34 29.39,-48.1 0,-45.73 -349.94,28.07 -693.54,121.1 -1019.78,248.58 -84.86,33.15 -168.71,68.93 -251.41,107.14 -26.67,12.3 -3.48,51.75 23.08,39.49l0 0z"/>
  <path class="fil0" d="M4208.81 2663.57c306.11,-141.92 626.82,-263.83 956.96,-336.31 88.8,-19.5 178.53,-34.89 269.12,-43.04 29.09,-2.62 29.37,-48.38 0,-45.73 -342.74,30.92 -678.45,145.75 -995.29,275.07 -85.46,34.87 -170.13,71.71 -253.87,110.53 -26.67,12.37 -3.48,51.82 23.08,39.49l0 0z"/>
  <path class="fil0" d="M4349.34 2923.29c285.98,-153.97 599.61,-271.21 918.1,-336.01 86.18,-17.53 173.26,-30.39 261.11,-35.47 29.25,-1.7 29.46,-47.46 0,-45.76 -331.41,19.22 -660.23,129.39 -962.37,261.46 -81.46,35.61 -161.63,74.13 -239.92,116.29 -25.95,13.95 -2.88,53.47 23.08,39.49l0 0z"/>
  <path class="fil0" d="M4541.71 3122.6c179.88,-101.5 374.08,-173.92 576.39,-215.4 28.84,-5.9 16.62,-50.01 -12.14,-44.09 -205.98,42.21 -404.22,116.66 -587.33,220.02 -25.63,14.46 -2.6,53.98 23.08,39.47l0 0z"/>
  <path class="fil0" d="M3644.28 4165.79c518.73,-287.6 1072.3,-510.76 1645.6,-662.87 161.42,-42.83 324.29,-79.93 488.27,-111.51 28.88,-5.57 16.64,-49.66 -12.14,-44.11 -584.57,112.6 -1154.53,297.45 -1694.01,549.07 -152.93,71.32 -303.25,148.1 -450.82,229.94 -25.75,14.26 -2.69,53.77 23.1,39.49l0 0z"/>
  <path class="fil0" d="M3789.36 4353.42c271.1,-125.79 543.98,-247.95 821.23,-359.58 291.37,-117.31 587.93,-225.2 892.28,-303.9 151.74,-39.24 305.97,-71.37 462.12,-86.53 29.02,-2.83 29.32,-48.59 0,-45.74 -291.34,28.28 -576.58,108.95 -853.29,201.57 -304.09,101.8 -601.59,222.85 -895.32,351.24 -150.88,65.93 -300.74,134.14 -450.12,203.45 -26.67,12.37 -3.46,51.82 23.1,39.49l0 0z"/>
  <path class="fil0" d="M3955.13 4625.96c263.46,-177.91 555.76,-313.61 850.02,-431.92 296.66,-119.29 601.46,-221.62 911.87,-298.75 129.08,-32.06 260,-60.92 392.42,-75.22 28.93,-3.13 29.28,-48.92 0,-45.76 -266.25,28.77 -528.99,104.01 -783.48,184.55 -320.64,101.46 -636.29,222.97 -938.85,370.12 -156.78,76.24 -310.52,159.87 -455.09,257.49 -24.24,16.39 -1.39,56.02 23.1,39.49l0 0z"/>
  <path class="fil0" d="M4119.13 4928.37c538.2,-279.76 1098.44,-536.99 1684.19,-699.9 153.41,-42.67 309.13,-77.94 466.95,-99.71 29.02,-3.99 16.67,-48.08 -12.17,-44.11 -294.27,40.6 -581.59,125.99 -860.84,225.52 -295.48,105.29 -584.24,229.29 -867.71,363.36 -145.87,69 -290.34,140.92 -433.5,215.33 -26.14,13.58 -3.04,53.07 23.08,39.51l0 0z"/>
  <path class="fil0" d="M5882.21 1519.74c262.25,-243.52 568.45,-436.88 896.87,-578.2 333.6,-143.57 691.53,-233.35 1053.24,-265.46 204.23,-18.13 409.88,-17.74 614.03,1.53 29.28,2.76 29.09,-43.02 0,-45.76 -367.42,-34.67 -739.93,-7.55 -1099.32,75.89 -356,82.67 -700.32,220.95 -1012.03,412.14 -173.22,106.26 -336.2,229.22 -485.13,367.52 -21.62,20.08 10.8,52.35 32.34,32.34l0 0z"/>
  <path class="fil0" d="M6131.25 1836.07c249.07,-251.09 547.84,-451.42 863.77,-608.5 159.71,-79.4 325.12,-150.35 497.3,-197.85 175.68,-48.43 356.53,-75.62 537.92,-90.92 195.85,-16.53 392.5,-19.24 588.95,-19.29 29.42,0 29.49,-45.73 0,-45.73 -359.78,0.07 -724.24,9.01 -1075.39,95.26 -175.07,43.04 -342.53,109.82 -505.3,186.78 -163.67,77.38 -321.94,166.49 -472.48,267.11 -167.25,111.74 -325.35,237.92 -467.11,380.82 -20.73,20.92 11.58,53.28 32.34,32.34l0 0z"/>
  <path class="fil0" d="M6283.92 2134.05c265.09,-235.51 579.92,-411.93 907.32,-545.12 337.03,-137.09 691.87,-231.38 1051.45,-285.84 191.05,-28.91 383.98,-45.83 577.18,-49.08 29.42,-0.51 29.51,-46.27 0,-45.76 -356.16,6.04 -712.02,57.65 -1057.02,145.52 -356.74,90.91 -706.15,222.04 -1026.61,404.27 -172.47,98.07 -336.26,211.83 -484.67,343.67 -22.08,19.59 10.38,51.84 32.34,32.34l0 0z"/>
  <path class="fil0" d="M6486.69 2450.56c278.02,-210.87 580.92,-388.25 901.03,-527.22 323.45,-140.44 663.27,-237.6 1009.99,-300.38 196.55,-35.59 396.09,-60.8 596.1,-61.24 29.44,-0.05 29.49,-45.8 0,-45.74 -176.38,0.4 -352.38,20.32 -526.29,48.76 -178.26,29.14 -355.49,67.23 -529.55,115.62 -339.49,94.33 -667.73,230.19 -974.88,402.83 -173.8,97.69 -340.65,207.39 -499.48,327.88 -23.15,17.57 -0.37,57.32 23.08,39.49l0 0z"/>
  <path class="fil0" d="M6738.98 2788.17c261.46,-231.31 553.64,-426.76 866.34,-581.88 312.56,-155.06 645.37,-269.17 987.28,-338.73 194.09,-39.49 390.92,-64.03 588.74,-73.76 29.3,-1.44 29.46,-47.2 0,-45.73 -354.14,17.41 -705.59,82.18 -1042.81,191.72 -337.03,109.51 -660.16,262.67 -957.54,455.46 -166.83,108.16 -325.45,228.84 -474.36,360.57 -22.08,19.55 10.36,51.77 32.34,32.34l0 0z"/>
  <path class="fil0" d="M6912.34 3189.77c256.91,-245.33 548.9,-452.37 864.39,-615.56 313.93,-162.35 650.48,-280.73 996.98,-350.45 196.04,-39.47 395.01,-62.75 594.85,-69.9 29.35,-1.07 29.49,-46.81 0,-45.76 -358.86,12.88 -715.32,77.77 -1056.02,190.95 -340.56,113.13 -665.64,273.65 -961.69,476.52 -166.9,114.36 -324.52,242.12 -470.85,381.87 -21.34,20.36 11.03,52.68 32.34,32.34l0 0z"/>
  <path class="fil0" d="M7125.49 3508.35c261.02,-220.35 547,-410.44 850.63,-566.88 303.6,-156.41 624.57,-278.74 955.24,-364.08 187.59,-48.38 378.26,-84.86 570.52,-108.72 28.84,-3.58 29.18,-49.36 0,-45.74 -344.65,42.77 -683.79,124.14 -1010.07,243.19 -325.98,118.94 -638.85,274.05 -930.21,462.52 -163.35,105.66 -319.78,221.88 -468.44,347.36 -22.5,19.02 9.99,51.22 32.34,32.34l0 0z"/>
  <path class="fil0" d="M7272.33 3863.86c513.94,-387.88 1093.54,-687.11 1707.66,-880.69 173.71,-54.75 349.99,-100.92 528.13,-138.67 28.79,-6.11 16.6,-50.2 -12.14,-44.11 -633.55,134.31 -1243.54,377.75 -1795.65,716.32 -155.23,95.19 -305.74,197.97 -451.07,307.66 -23.19,17.53 -0.42,57.25 23.08,39.49l0 0z"/>
  <path class="fil0" d="M1902.74 1537.13c-432.99,114.9 -526.13,208.02 -641,641.03 -114.89,-433.01 -208,-526.13 -641,-641.03 433,-114.87 526.11,-207.99 641,-640.98 114.87,432.99 208.01,526.11 641,640.98z"/>
  <path class="fil0" d="M594.31 2094.77c-200.72,53.28 -243.89,96.44 -297.15,297.17 -53.25,-200.73 -96.42,-243.89 -297.15,-297.17 200.73,-53.23 243.9,-96.42 297.15,-297.15 53.26,200.73 96.43,243.91 297.15,297.15z"/>
  <path class="fil0" d="M543.55 1153.5l-101.16 0 0 -101.15c0,-29.93 -46.5,-29.97 -46.5,0l0 101.15 -94.25 0c-29.93,0 -29.98,46.5 0,46.5l94.25 0 0 87.34c0,29.93 46.5,29.97 46.5,0l0 -87.34 101.16 0c29.93,0 29.97,-46.5 0,-46.5z"/>
  <path class="fil0" d="M1079.99 2818.86l-101.16 0 0 -101.13c0,-29.95 -46.52,-30 -46.52,0l0 101.13 -94.23 0c-29.93,0 -29.97,46.53 0,46.53l94.23 0 0 87.32c0,29.93 46.52,29.97 46.52,0l0 -87.32 101.16 0c29.93,0 29.97,-46.53 0,-46.53z"/>
  <path class="fil0" d="M10841.02 3104.77c-2.99,-14.91 -20.71,-23.47 -34.59,-19.64 -15.51,4.27 -22.61,19.64 -19.62,34.6 26.52,132.49 -4.27,272.37 -81.07,383.09 -8.66,12.49 -2.3,31.23 10.1,38.47 13.95,8.17 29.79,2.41 38.45,-10.1 85.53,-123.3 116.13,-279.64 86.74,-426.41z"/>
  <path class="fil0" d="M3792.47 7004.32c-90.36,8.89 -176.7,-22.71 -249.92,-74.27 -76.82,-54.1 -134.91,-130.71 -183.88,-209.86 -29.28,-47.31 -55.77,-96.28 -82.16,-145.24 -17.18,-31.85 -65.73,-3.48 -48.55,28.39 95.05,176.19 203.68,364.36 402.81,435.93 51.47,18.48 107.19,26.6 161.7,21.24 15.11,-1.46 28.12,-11.86 28.12,-28.09 0,-14.05 -12.91,-29.62 -28.12,-28.12z"/>
  <path class="fil0" d="M10613.75 2496.29c31.55,81.79 54.63,166.49 68.98,252.94 2.48,14.97 21.03,23.36 34.59,19.62 15.9,-4.36 22.13,-19.53 19.64,-34.57 -14.37,-86.46 -37.45,-171.15 -68.98,-252.94 -5.46,-14.16 -18.9,-23.94 -34.59,-19.64 -13.54,3.74 -25.12,20.34 -19.64,34.59l0 0z"/>
 </g>
</svg>
