<?xml version="1.0" encoding="UTF-8"?>
<!DOCTYPE svg PUBLIC "-//W3C//DTD SVG 1.1//EN" "http://www.w3.org/Graphics/SVG/1.1/DTD/svg11.dtd">
<!-- Creator: CorelDRAW -->
<svg xmlns="http://www.w3.org/2000/svg" xml:space="preserve" width="314.896mm" height="206.014mm" version="1.1" style="shape-rendering:geometricPrecision; text-rendering:geometricPrecision; image-rendering:optimizeQuality; fill-rule:evenodd; clip-rule:evenodd"
viewBox="0 0 22599.85 14785.44"
 xmlns:xlink="http://www.w3.org/1999/xlink"
 xmlns:xodm="http://www.corel.com/coreldraw/odm/2003">
 <defs>
  <style type="text/css">
   <![CDATA[
    .fil0 {fill:#FEFEFE;fill-rule:nonzero}
   ]]>
  </style>
 </defs>
 <g id="Camada_x0020_1">
  <metadata id="CorelCorpID_0Corel-Layer"/>
  <path class="fil0" d="M1673.97 12380.74c1295.41,419.05 2609.66,778.09 3932.78,1097.08 1360.24,328.14 2730.42,614.25 4104.78,876.79 777.88,148.62 1557.84,289.61 2337.82,425.84 68.48,11.92 139.05,-18.24 158.39,-89.86 17.25,-62.05 -20.91,-146.32 -89.91,-158.24 -1389.52,-242.82 -2776.42,-500.29 -4156.53,-789.43 -1356.06,-284.33 -2705.33,-598.78 -4042.04,-963.67 -730.31,-199.23 -1456.43,-413.67 -2176.8,-646.88 -158.4,-51.12 -225.84,197.5 -68.48,248.37l0 0z"/>
  <path class="fil0" d="M1742.46 12087.57c-238.91,-241.05 -376.92,-567.62 -376.92,-897.07 0,-90.85 5.75,-146.32 21.43,-221.24 7.84,-36.95 17.25,-73.71 28.76,-109.62 6.27,-20.02 13.59,-39.78 20.91,-59.28 2.61,-7.84 5.75,-15.68 9.41,-23.27 -9.41,21.75 4.71,-10.66 6.8,-14.95 17.25,-35.44 35.02,-70.41 56.46,-103.82 9.41,-15.95 19.87,-31.36 30.32,-46.84 4.7,-6.59 9.93,-13.38 14.63,-19.97 12.55,-16.99 -3.14,2.77 14.64,-17.99 25.09,-28.64 50.18,-56.45 77.89,-82.28 35.02,-32.93 55.41,-48.87 83.64,-68.37 168.86,-116.47 359.14,-164.83 564.59,-171.68 165.72,-5.54 166.24,-263.06 0,-257.46 -418.74,13.91 -819.7,196.2 -1030.38,572.17 -188.72,336.5 -199.17,756.81 -71.62,1116.58 77.89,220.5 202.31,420.78 366.98,587.12 116.58,117.99 299.03,-64.04 182.45,-182.03l0 0z"/>
  <path class="fil0" d="M12830.89 8263.47c-49.66,-23.05 -102.99,-34.19 -156.31,-46.58 -97.76,-22.79 -196.04,-43.6 -294.84,-64.36 -334.57,-70.36 -670.19,-136.96 -1005.81,-203.04 -474.67,-93.16 -949.34,-184.8 -1424.54,-275.71 -559.89,-106.85 -1120.29,-212.66 -1680.7,-317.26 -585.5,-109.36 -1171.52,-217.73 -1757.55,-324.59 -557.27,-101.78 -1114.54,-202.26 -1672.33,-300.75 -474.67,-83.8 -949.35,-166.34 -1424.55,-245.34 -333,-55.2 -666,-110.14 -1000.58,-156.25 -105.59,-14.43 -211.72,-29.33 -317.84,-38.74 -67.97,-5.8 -128.08,-9.36 -191.86,18.51 -540.54,235.19 -884.52,788.44 -1012.6,1346.18 -139.58,611.43 -51.23,1291.76 310,1813.85 194.99,281.25 457.95,509.91 764.28,663.08 72.14,36.23 129.13,59.76 204.93,75.69 213.28,45.85 427.62,91.38 640.91,137.23 388.94,83.07 777.88,166.35 1167.34,249.41 503.43,107.85 1007.37,215.43 1510.8,323.02 562.5,120.29 1125,240.58 1687.5,360.81 565.11,121.02 1130.75,241.78 1696.38,362.8 507.61,108.37 1014.69,216.74 1521.78,325.37 393.64,84.06 786.76,168.12 1180.93,252.44 222.69,47.58 445.92,95.2 669.14,143.04 28.75,6.06 57.5,12.12 86.26,18.45 90.44,19.23 191.33,-59.76 158.39,-158.45 -155.78,-467.67 -221.13,-962.63 -213.81,-1454.81 7.31,-497.25 87.82,-1009 291.17,-1465.74 106.13,-238.75 244.66,-462.8 425.53,-651.94 115.01,-119.71 -66.91,-302 -181.92,-182.03 -356.53,372.68 -570.34,860.84 -683.26,1359.35 -119.71,528.42 -139.58,1081.87 -71.62,1618.6 36.07,287.16 94.1,570.44 185.58,845.16 52.8,-52.91 105.6,-105.6 158.4,-158.51 -117.11,-24.77 -233.68,-49.87 -350.78,-74.91 -313.14,-67.12 -626.28,-133.93 -939.94,-201.05 -453.24,-96.97 -907,-193.95 -1360.77,-290.92 -537.92,-114.91 -1075.86,-229.86 -1613.26,-344.82 -564.07,-120.49 -1128.13,-241.31 -1692.2,-361.8 -540.02,-115.43 -1080.04,-230.91 -1620.58,-346.34 -452.2,-96.71 -904.92,-193.74 -1357.63,-290.45 -314.71,-67.07 -628.89,-134.4 -943.6,-201.79 -118.66,-25.31 -237.33,-49.61 -355.48,-75.91 37.12,8.31 -15.68,-7.89 -27.7,-13.44 -18.83,-9.14 -37.64,-18.24 -56.46,-27.86 -41.3,-21.01 -82.08,-43.55 -121.81,-67.33 -67.43,-40.51 -141.15,-90.39 -193.43,-132.68 -116.57,-93.68 -236.81,-217.73 -314.71,-324.58 -183.49,-250.67 -288.04,-513.99 -339.8,-821.32 -10.97,-63.83 -17.25,-118.25 -21.95,-197.77 -5.22,-75.17 -6.27,-150.61 -3.14,-226.09 5.22,-158.98 19.87,-268.6 55.94,-422.03 16.73,-71.67 37.12,-142.3 61.16,-211.93 25.61,-75.96 44.44,-122.8 72.14,-182.82 29.8,-64.82 63.26,-127.86 99.85,-188.88 17.25,-28.38 35.02,-56.2 53.32,-83.54 9.41,-13.69 18.3,-27.08 28.23,-40.51 5.22,-7.58 35.55,-47.88 23.53,-32.93 41.82,-54.42 87.82,-106.07 135.92,-154.43 23,-22.53 46,-44.54 70.05,-65.81 12.02,-10.41 24.04,-20.76 36.07,-30.9 6.27,-5.07 12.55,-10.14 18.29,-15.22 18.29,-14.68 -4.18,3.04 6.8,-5.33 53.84,-40.72 109.78,-77.47 168.33,-109.83 27.71,-15.22 55.94,-29.64 84.69,-42.82 21.44,-10.14 36.07,-9.62 8.37,-4.55 1.05,-0.26 2.09,-0.73 3.14,-0.73 9.41,-1.77 -47.57,1 -13.07,2.51 10.46,0.26 20.39,0 30.32,0.26 31.89,1.26 63.25,4.29 94.62,7.32 45.48,4.55 90.96,9.88 135.92,15.68 12.55,1.57 25.1,3.09 37.64,4.87 6.27,0.73 13.07,1.77 19.87,2.5 30.84,4.03 -13.59,-1.77 -4.18,-0.52 30.84,4.33 61.16,8.36 92.53,12.65 150.03,21.54 300.59,44.6 450.62,68.38 416.64,65.81 832.77,136.44 1247.84,208.37 523.81,90.64 1047.11,183.54 1569.87,277.75 576.09,103.82 1151.66,209.11 1727.23,315.44 571.91,105.86 1143.81,212.71 1714.68,320.82 519.63,97.96 1038.74,197.24 1557.32,297.71 404.63,78.26 809.77,157.51 1213.87,239.01 240.48,48.62 481.99,96.24 721.42,152.17 27.18,6.33 54.37,12.65 81.03,19.77 23,6.32 62.73,24.04 10.98,0 63.25,29.12 138.53,17.98 176.17,-46.11 32.41,-55.67 16.73,-146.85 -46.53,-176.17l0 0z"/>
  <path class="fil0" d="M1952.09 6237.96c-186.63,-26.56 -346.6,-74.91 -497.68,-178.48 -23,-15.95 -39.73,-29.38 -71.1,-59.28 -27.7,-26.3 -53.84,-54.68 -77.89,-84.27 -14.63,-17.72 16.73,23.78 -5.22,-7.11 -4.71,-6.59 -9.41,-12.92 -14.12,-19.5 -8.89,-12.92 -17.25,-26.09 -25.61,-39.47 -20.39,-33.72 -38.68,-68.64 -54.89,-104.35 -1.57,-3.81 -9.41,-22.79 -1.05,-1.77 -2.61,-7.32 -5.75,-14.69 -8.36,-22.01 -6.8,-18.51 -13.59,-36.96 -19.34,-55.94 -10.98,-34.19 -19.87,-68.9 -27.71,-103.82 -4.18,-19.5 -7.84,-39.26 -10.98,-59.02 -1.56,-8.1 -7.31,-49.87 -4.18,-25.82 -4.71,-38.21 -7.84,-76.95 -9.93,-115.68 -3.14,-76.22 -1.05,-152.39 5.22,-228.4 1.57,-18.72 3.14,-37.17 5.23,-55.68 0.52,-7.84 6.79,-56.45 3.65,-33.4 5.76,-38.53 12.03,-77.01 19.34,-115.48 27.19,-139.26 65.87,-276.7 116.06,-409.64 6.27,-16.73 12.55,-33.19 19.87,-49.87 2.61,-7.58 18.29,-44.86 6.8,-16.99 12.02,-28.6 25.09,-56.98 38.68,-85.05 46.53,-95.98 102.46,-185.06 179.83,-259.77 135.92,-132.16 330.91,-204.09 518.07,-188.14 86.78,7.37 173.04,18.51 259.29,29.12 65.87,8.37 132.26,16.99 198.13,25.56 38.16,5.07 76.32,10.14 114.49,15.22 9.93,1.26 19.87,2.5 29.8,4.08 31.36,4.03 -21.44,-3.04 -1.05,-0.26 23,3.03 45.48,6.06 68.48,9.35 432.85,58.5 865.18,120.24 1297.51,182.55 565.11,81.24 1129.7,164.04 1694.29,247.64 632.55,93.41 1265.1,188.09 1897.65,283.29 629.41,94.93 1258.82,190.65 1888.23,287.36 563.55,86.62 1126.57,173.93 1689.59,262.8 427.1,67.12 853.68,134.98 1279.73,205.86 224.8,37.49 452.2,70.89 675.42,120.23 16.73,3.82 33.98,7.11 50.19,12.91 65.86,23.58 141.14,-26.29 158.92,-89.86 19.34,-71.41 -24.57,-134.72 -89.91,-158.24 -50.71,-18.24 -107.7,-24.82 -159.97,-34.92 -118.14,-22.33 -236.29,-42.55 -354.96,-62.84 -393.12,-66.81 -786.76,-129.85 -1180.41,-192.38 -550.48,-87.35 -1100.95,-173.19 -1651.42,-258.04 -632.03,-97.71 -1264.57,-194.16 -1897.13,-289.61 -645.62,-97.71 -1291.24,-194.47 -1936.86,-290.4 -589.16,-87.35 -1177.8,-173.98 -1766.95,-259.3 -462.13,-66.81 -924.26,-133.15 -1386.9,-196.45 -275.5,-37.95 -551,-78 -827.54,-106.59 -130.17,-13.44 -255.63,0 -382.14,40.51 -393.65,126.09 -593.87,478.54 -714.63,848.92 -191.33,584.61 -215.9,1367.98 362.8,1744.48 159.44,103.3 346.07,159.76 532.18,186.05 69.01,9.88 138.54,-16.68 158.93,-89.87 16.21,-60.22 -20.91,-148.62 -90.44,-158.24l0 0z"/>
  <path class="fil0" d="M2565.81 3639.48c-148.99,-142.76 -260.34,-325.06 -325.69,-511.94 -36.59,-105.29 -62.21,-214.39 -78.42,-324.79 -2.61,-15.22 -0.52,-1.52 0,1.25 -1.04,-6.58 -2.09,-13.17 -2.61,-19.76 -1.56,-15.42 -3.14,-30.9 -4.7,-46.32 -2.62,-28.85 -4.71,-57.45 -6.27,-86.57 -2.62,-55.73 -2.62,-111.45 -0.52,-167.39 4.7,-123.54 14.63,-200.27 40.77,-318.73 12.55,-56.72 27.71,-112.92 45.48,-168.38 8.37,-25.56 17.25,-50.91 26.14,-76.22 4.71,-12.39 9.41,-24.83 14.64,-37.43 2.09,-5.33 16.21,-39.52 9.93,-24.83 91.48,-214.7 208.58,-384.6 379.53,-535.74 179.31,-158.76 427.1,-269.44 667.58,-301.06 68.48,-9.1 128.6,-52.64 128.6,-128.6 0,-62.58 -59.59,-138.01 -128.6,-128.86 -268.18,35.18 -523.81,125.31 -741.29,288.88 -203.35,152.91 -368.55,351.93 -483.04,579.02 -228.45,451.41 -283.86,996.76 -141.15,1483.41 77.89,265.36 216.95,513.99 417.69,706.16 119.72,114.43 302.16,-67.33 181.93,-182.09l0 0z"/>
  <path class="fil0" d="M13242.3 5484.49c-130.69,179.73 -289.61,329.92 -439.64,491.4 -138.54,148.89 -225.84,324.12 -297.98,512.99 -152.13,398.51 -140.11,821.06 -5.76,1222.6 93.58,276.76 226.88,539.08 369.6,792.99 81.03,144.6 303.73,14.96 222.18,-129.85 -208.58,-372.94 -423.96,-783.89 -441.73,-1220.14 -7.84,-188.09 23,-367.61 85.2,-545.61 32.93,-95.46 75.28,-187.1 122.33,-276.18 39.21,-73.97 69.01,-111.19 122.85,-169.17 167.28,-180.77 339.8,-348.89 485.65,-549.16 40.78,-56.2 9.41,-143.29 -46.53,-175.96 -64.82,-38.22 -134.88,-10.36 -176.17,46.1l0 0z"/>
  <path class="fil0" d="M12274.14 12347.08c-243.09,332.69 -449.58,711.96 -520.15,1122.38 -71.09,412.72 3.66,821.37 218.52,1181.35 84.69,142.04 307.39,12.65 222.18,-130.12 -185.06,-310.63 -254.59,-667.16 -185.06,-1023.9 73.71,-375.45 263.47,-714 486.7,-1019.81 41.3,-56.2 9.93,-143.55 -46,-176.23 -65.35,-38.21 -134.87,-10.14 -176.17,46.32l0 0z"/>
  <path class="fil0" d="M12329.55 14780.45c911.71,-244.08 1818.19,-506.09 2719.96,-784.36 897.6,-276.96 1791.01,-570.18 2677.62,-879.82 485.12,-169.38 968.17,-343.82 1449.11,-523.87 64.82,-24.31 109.25,-87.09 89.91,-158.24 -17.25,-62.53 -93.05,-114.44 -158.39,-90.13 -861,322.08 -1727.75,626.38 -2600.25,915.52 -898.12,297.51 -1801.98,578.81 -2710.56,843.38 -510.74,148.63 -1022.53,291.66 -1535.89,429.4 -159.44,42.77 -92.01,291.13 68.48,248.11l0 0z"/>
  <path class="fil0" d="M12470.7 12380.74c872.5,-232.89 1734.55,-503.79 2594.5,-776.26 894.45,-283.29 1785.78,-574.73 2680.75,-854.99 381.09,-119.5 763.24,-238.02 1148,-345.07 158.92,-44.33 91.48,-292.96 -68.48,-248.42 -758.54,211.15 -1507.66,457.53 -2257.31,697.79 -923.73,295.99 -1846.41,594.75 -2774.85,877.05 -461.61,140.26 -924.78,277.22 -1391.09,401.53 -159.97,42.82 -92.01,291.18 68.48,248.37l0 0z"/>
  <path class="fil0" d="M12894.14 8710.34c863.61,-251.4 1748.13,-435.47 2626.9,-623.61 934.71,-199.75 1872.04,-388.63 2808.83,-576.25 285.96,-57.19 571.91,-112.18 856.82,-173.93 162.06,-35.23 93.58,-283.55 -68.48,-248.36 -653.98,142.04 -1312.67,264.57 -1968.74,397.72 -999.53,203.09 -1999.06,409.9 -2992.84,639.55 -445.92,103.04 -891.85,208.64 -1330.97,336.77 -158.4,46.32 -90.97,294.68 68.48,248.11l0 0z"/>
  <path class="fil0" d="M13528.26 5667.56c1319.99,-208.37 2640.5,-417.02 3960.49,-625.39 372.73,-59.02 744.94,-117.72 1117.68,-176.49 68.48,-10.87 106.64,-96.71 89.91,-158.5 -20.38,-73.13 -89.39,-100.74 -158.92,-89.86 -1319.99,208.63 -2640.5,417.02 -3960.49,625.6 -372.21,58.76 -744.94,117.51 -1117.15,176.49 -68.48,10.87 -106.65,96.71 -89.92,158.24 20.39,73.19 89.4,100.79 158.4,89.92l0 0z"/>
  <path class="fil0" d="M13247.54 2711.1c730.3,-138.28 1468.45,-232.95 2206.08,-322.34 775.27,-93.68 1551.57,-177.74 2325.8,-278.74 396.26,-51.65 791.47,-107.32 1185.11,-175.49 68.48,-11.87 106.65,-95.93 89.92,-158.24 -19.87,-72.62 -89.92,-101.99 -158.4,-90.13 -712.01,123.59 -1430.29,208.43 -2148.05,292.96 -785.72,92.42 -1571.96,180.25 -2356.11,288.88 -405.67,56.46 -810.81,118.51 -1213.34,194.73 -67.97,12.86 -107.17,95.19 -89.92,158.19 19.87,71.67 89.92,103.09 158.93,90.18l0 0z"/>
  <path class="fil0" d="M3436.22 946.39c707.3,-112.91 1416.7,-216 2127.14,-306.66 791.99,-101 1586.6,-187.36 2381.73,-259.97 498.72,-45.59 997.97,-85.84 1497.21,-121.81 69.01,-4.81 128.6,-55.46 128.6,-128.6 0,-65.87 -59.07,-133.72 -128.6,-128.86 -863.09,61.74 -1725.13,137.44 -2585.61,229.86 -767.43,82.54 -1533.8,178.53 -2297.57,287.36 -397.82,56.72 -794.61,117 -1191.38,180.51 -68.48,10.87 -106.65,96.45 -89.92,158.24 20.39,73.18 89.92,101.05 158.4,89.91l0 0z"/>
  <path class="fil0" d="M9386.37 257.96c226.88,23.53 453.24,51.39 679.6,81.29 120.24,15.68 238.38,31.89 374.83,51.12 142.71,20.02 285.43,40.52 428.15,61.79 649.27,95.93 1298.03,200.01 1945.74,307.86 709.4,117.99 1418.79,240.79 2127.14,366.61 684.83,121.55 1368.61,245.86 2052.39,373.21 576.09,107.32 1151.66,216.48 1726.18,329.4 58.55,11.66 117.1,23.05 175.65,34.66 67.96,13.69 139.06,-19.5 158.4,-89.86 17.25,-63.31 -21.44,-144.81 -89.92,-158.24 -555.18,-110.14 -1111.4,-216.22 -1667.63,-320.25 -677.51,-127.14 -1355.53,-251.19 -2034.09,-372.21 -713.06,-127.35 -1426.63,-251.66 -2140.73,-371.69 -661.83,-110.88 -1324.17,-218.47 -1987.56,-318.53 -529.05,-79.46 -1059.13,-155.94 -1590.79,-215.43 -52.8,-6.12 -105.08,-11.66 -157.35,-17.2 -69.53,-7.11 -129.12,64.31 -129.12,128.86 0,75.44 59.59,121.49 129.12,128.6l0 0z"/>
  <path class="fil0" d="M13000.79 2621.18c-263.47,332.48 -460.03,720.06 -522.77,1142.87 -60.64,410.95 -4.18,821.38 162.05,1201.64 98.8,226.09 236.82,431.18 397.83,618.01 44.96,52.7 135.39,46.58 181.92,0 52.28,-52.38 44.96,-129.12 0,-182.03 -245.7,-285.58 -419.79,-627.64 -485.13,-999.85 -61.16,-349.89 -11.5,-711.17 119.19,-1039.58 79.98,-200.27 195.51,-390.4 329.34,-559 42.87,-54.47 52.8,-128.91 0,-182.08 -44.96,-44.8 -138.53,-54.68 -182.44,0l0 0z"/>
  <path class="fil0" d="M18839.06 1719.36c-294.32,325.32 -500.81,731.19 -599.09,1158.56 -95.14,411.68 -97.23,862.62 65.87,1257.83 90.96,219.3 226.36,415.97 407.76,569.92 53.32,45.06 130.17,52.17 182.44,0 46,-46.05 52.8,-136.71 0,-182.03 -597,-506.15 -550.99,-1410.74 -238.91,-2069.06 94.62,-200.22 214.86,-388.62 363.85,-553.19 111.35,-122.54 -70.57,-305.09 -181.92,-182.03l0 0z"/>
  <path class="fil0" d="M18678.05 4709.96c-200.22,290.4 -270.79,675.26 -297.45,1019.87 -31.37,407.61 14.63,839.56 197.6,1209.48 97.76,197.24 243.09,367.87 428.15,487.64 139.58,90.39 268.7,-132.41 129.64,-222.33 -132.79,-86.04 -236.29,-208.84 -316.27,-357.73 -42.87,-81.5 -67.97,-143.03 -96.72,-233.42 -27.7,-89.92 -49.14,-181.82 -64.82,-274.72 -56.98,-342.57 -33.46,-723.09 55.94,-1061.37 22.48,-85.58 49.66,-170.11 83.64,-251.66 -8.36,20.49 15.69,-33.67 19.87,-42.56 7.84,-16.46 16.21,-32.62 25.1,-48.56 17.25,-32.68 36.59,-64.36 57.5,-94.73 39.73,-57.19 10.46,-142.77 -46.53,-176.22 -63.77,-37.23 -136.44,-11.14 -175.65,46.31l0 0z"/>
  <path class="fil0" d="M19107.76 7191.69c-450.11,128.92 -709.92,547.44 -813.43,981.39 -112.39,474.93 -81.03,999.06 79.46,1459.57 85.74,245.59 210.68,481.83 394.69,668.2 116.58,117.73 299.03,-64.3 181.93,-182.29 -127.56,-129.13 -236.82,-315.49 -302.16,-483.35 -78.94,-202.31 -129.64,-429.14 -148.99,-628.42 -10.98,-115.43 -14.64,-231.38 -10.98,-347.12 4.18,-117.73 14.12,-213.71 33.46,-317.22 19.34,-106.33 47.04,-211.15 84.69,-312.72 18.82,-51.65 23.53,-62.26 48.09,-111.66 21.44,-45.06 46,-88.87 73.19,-130.91 36.6,-57.71 46,-70.36 89.39,-118.46 33.98,-37.95 71.1,-73.45 111.35,-105.34 -20.91,16.72 9.41,-6.85 11.5,-8.37 12.55,-8.83 25.09,-17.72 38.68,-26.03 19.87,-12.7 40.26,-24.57 60.64,-35.76 10.98,-5.28 21.44,-10.61 31.89,-15.68 7.31,-3.55 14.63,-6.8 21.95,-9.88 -12.55,5.07 -12.02,4.86 2.09,-0.73 26.66,-10.41 53.85,-19.24 81.03,-27.09 158.92,-45.58 91.48,-293.95 -68.48,-248.16l0 0z"/>
  <path class="fil0" d="M18947.79 10228.92c-237.33,253.7 -376.39,593.5 -432.85,932.99 -59.07,356 -41.3,730.73 109.78,1062.63 78.42,171.68 199.7,317.74 354.44,425.12 56.98,39.73 142.71,10.61 176.17,-46.05 37.12,-64.1 10.98,-136.5 -46,-176.28 -100.89,-69.85 -182.97,-172.62 -243.61,-293.9 -56.46,-111.92 -99.85,-273.46 -113.97,-398.56 -36.07,-315.44 8.89,-630.41 128.6,-924.62 57.5,-141.25 147.42,-290.13 249.36,-399.29 112.91,-120.76 -68.48,-303.31 -181.93,-182.03l0 0z"/>
  <path class="fil0" d="M3020.62 1158.27c1302.73,180.77 2608.09,346.65 3911.87,519.06 1373.83,181.5 2747.15,367.61 4116.27,582.57 694.75,109.1 1388.47,225.58 2079.05,358.26 96.72,18.77 138.54,-130.12 40.78,-148.89 -1276.08,-245.08 -2562.09,-439.02 -3848.62,-621.31 -1375.92,-195.46 -2754.46,-373.67 -4132.48,-554.19 -708.87,-92.95 -1417.74,-186.1 -2126.1,-284.33 -41.3,-5.86 -82.08,10.09 -94.62,53.9 -10.46,35.96 12.55,89.39 53.85,94.93l0 0z"/>
  <path class="fil0" d="M10971.92 4327.71l-3171.11 -434.73c-337.71,-46.37 -574,-357.78 -528,-695.75l0 0c46.53,-338.03 358.1,-574.53 695.81,-528.16l3171.11 434.68c337.71,46.37 574.52,357.78 528,695.75l0 0c-46.53,338.02 -357.58,574.47 -695.81,528.21z"/>
  <path class="fil0" d="M5904.21 6374.19l-3163.27 -488.16c-337.19,-51.91 -568.25,-367.35 -515.97,-704.64l0 0c51.75,-336.97 367.51,-568.14 704.69,-516.23l3162.74 488.16c337.19,52.17 568.25,367.61 516.5,704.85l0 0c-52.28,337.03 -367.51,568.15 -704.69,516.03z"/>
  <path class="fil0" d="M12881.07 3154.93c222.18,-65.09 456.9,-96.24 684.3,-135.19 405.14,-69.42 811.34,-132.67 1218.05,-194.21 928.44,-141.04 1858.96,-273.46 2791.05,-393.22 339.28,-43.55 679.08,-89.08 1020.44,-117.73 65.35,-5.54 65.87,-108.57 0,-103.03 -738.15,62.05 -1473.68,175.17 -2206.6,277.48 -909.09,126.62 -1818.19,257.99 -2723.62,409.9 -269.23,45.06 -548.38,79.51 -810.81,156.73 -63.78,18.5 -36.6,117.99 27.19,99.27l0 0z"/>
  <path class="fil0" d="M12825.14 3435.71c221.65,-65.08 456.9,-96.45 684.3,-135.18 405.15,-69.42 811.34,-132.68 1217.53,-194.21 928.96,-141.04 1859.49,-273.46 2791.58,-393.23 339.28,-43.54 679.08,-89.08 1019.93,-117.72 65.86,-5.54 66.39,-108.58 0,-103.04 -737.63,62.05 -1473.16,175.18 -2206.09,277.22 -909.62,126.87 -1818.19,258.25 -2723.62,410.17 -269.23,45.06 -548.91,79.51 -811.34,156.72 -63.26,18.51 -36.07,117.99 27.71,99.27l0 0z"/>
  <path class="fil0" d="M12768.68 3772.69c215.38,-63.57 443.3,-94.67 663.92,-133.2 394.69,-68.58 790.42,-131.11 1186.16,-191.9 901.26,-138.74 1803.55,-268.86 2707.94,-386.12 333,-43.03 666.53,-87.82 1000.58,-115.95 65.87,-5.54 66.39,-108.58 0,-103.04 -720.38,60.54 -1438.66,171.94 -2154.33,272.94 -881.39,124.32 -1762.77,253.44 -2640.5,402.85 -262.42,44.8 -534.26,79.72 -790.95,154.95 -63.77,18.71 -36.6,118.2 27.19,99.48l0 0z"/>
  <path class="fil0" d="M12656.8 4109.46c221.65,-65.09 456.38,-96.24 683.78,-135.24 405.67,-69.37 811.86,-132.68 1218.05,-194.21 928.96,-140.99 1859.48,-273.41 2791.05,-393.17 339.27,-43.55 679.6,-89.13 1020.44,-117.73 65.87,-5.59 66.39,-108.63 0,-103.04 -737.62,62.06 -1473.16,175.18 -2206.6,277.49 -909.09,126.62 -1818.19,257.99 -2723.62,409.9 -268.7,45.06 -548.39,79.51 -810.81,156.72 -63.26,18.72 -36.6,117.99 27.7,99.28l0 0z"/>
  <path class="fil0" d="M12656.8 4390.23c221.65,-65.08 456.38,-96.24 683.78,-135.24 405.67,-69.36 811.86,-132.67 1218.05,-194.21 928.96,-140.99 1859.48,-273.4 2791.05,-393.17 339.27,-43.54 679.6,-89.13 1020.44,-117.72 65.87,-5.6 66.39,-108.64 0,-103.04 -737.62,62.05 -1473.16,175.18 -2206.6,277.48 -909.09,126.62 -1818.19,257.99 -2723.62,409.9 -268.7,45.06 -548.39,79.51 -810.81,156.73 -63.26,18.72 -36.6,117.99 27.7,99.27l0 0z"/>
  <path class="fil0" d="M12712.74 4671.01c221.65,-65.09 456.9,-96.24 684.31,-135.24 405.14,-69.37 811.34,-132.68 1217.52,-194.16 928.96,-141.04 1859.49,-273.46 2791.59,-393.22 339.27,-43.55 679.07,-89.14 1019.92,-117.73 65.87,-5.59 66.39,-108.63 0,-103.04 -737.62,62.05 -1473.16,175.23 -2206.08,277.49 -909.09,126.62 -1818.19,257.98 -2723.63,409.9 -269.22,45.06 -548.38,79.51 -811.33,156.72 -63.26,18.51 -36.07,117.99 27.7,99.28l0 0z"/>
  <path class="fil0" d="M12712.74 4895.54c221.65,-65.03 456.9,-96.19 684.31,-135.18 405.14,-69.37 811.34,-132.63 1217.52,-194.16 928.96,-141.04 1859.49,-273.46 2791.59,-393.22 339.27,-43.55 679.07,-89.13 1019.92,-117.73 65.87,-5.54 66.39,-108.63 0,-103.04 -737.62,62 -1473.16,175.18 -2206.08,277.49 -909.09,126.62 -1818.19,257.99 -2723.63,409.9 -269.22,45.06 -548.38,79.51 -811.33,156.72 -63.26,18.77 -36.07,117.99 27.7,99.22l0 0z"/>
  <path class="fil0" d="M12825.14 5176.37c221.65,-65.35 456.9,-96.24 684.3,-135.18 405.15,-69.42 811.34,-132.68 1217.53,-194.21 928.96,-141.05 1859.49,-273.46 2791.58,-393.23 339.28,-43.54 679.08,-89.08 1019.93,-117.72 65.86,-5.54 66.39,-108.58 0,-103.04 -737.63,62.05 -1473.16,175.18 -2206.09,277.48 -909.62,126.62 -1818.19,257.99 -2723.62,409.9 -269.23,45.06 -548.91,79.51 -811.34,156.73 -63.26,18.5 -36.07,117.99 27.71,99.27l0 0z"/>
  <path class="fil0" d="M12881.07 5457.15c222.18,-65.35 456.9,-96.45 684.3,-135.19 405.14,-69.63 811.34,-132.68 1218.05,-194.47 928.44,-140.78 1858.96,-273.2 2791.05,-392.97 339.28,-43.55 679.08,-89.08 1020.44,-117.73 65.35,-5.54 65.87,-108.58 0,-103.04 -738.15,62.05 -1473.68,175.18 -2206.6,277.22 -909.09,126.88 -1818.19,258.25 -2723.62,410.22 -269.23,45.01 -548.38,79.46 -810.81,156.67 -63.78,18.51 -36.6,117.99 27.19,99.28l0 0z"/>
  <path class="fil0" d="M12910.35 6148.61c223.74,-65.6 458.46,-100.53 687.43,-142.82 407.24,-74.7 815.52,-144.07 1224.85,-211.67 933.66,-154.68 1869.42,-301.53 2807.26,-432.95 339.28,-47.83 679.6,-97.96 1020.97,-126.82 65.35,-5.59 66.39,-108.63 0,-103.04 -294.84,24.78 -588.64,67.08 -881.91,107.32 -445.4,61.27 -889.75,127.35 -1334.1,195.21 -914.33,139.78 -1828.64,285.33 -2738.79,449.94 -269.74,48.62 -548.91,87.83 -812.9,165.56 -63.26,18.72 -36.6,117.99 27.19,99.27l0 0z"/>
  <path class="fil0" d="M12821.48 6564.06c220.6,-64.82 451.15,-103.82 675.94,-148.62 399.4,-79.25 799.84,-153.44 1199.75,-226.09 921.12,-166.87 1843.8,-326.58 2768.58,-468.14 335.09,-51.13 671.75,-106.07 1009.99,-134.45 65.87,-5.54 66.39,-108.58 0,-103.04 -291.18,24.57 -581.32,69.9 -870.41,112.91 -437.03,65.35 -873.55,136.5 -1309.54,209.69 -901.25,151.13 -1802.5,309.63 -2699.57,485.07 -267.13,52.17 -541.07,96.5 -801.93,173.45 -63.77,18.72 -36.6,117.94 27.19,99.22l0 0z"/>
  <path class="fil0" d="M12702.81 7009.14c223.22,-65.81 454.28,-110.88 681.69,-160.48 408.28,-89.4 817.61,-174.45 1227.45,-257.78 931.05,-189.35 1864.19,-372.68 2800.99,-533.43 335.61,-57.72 673.32,-120.5 1013.12,-149.41 65.87,-5.54 66.39,-108.31 0,-102.77 -293.27,24.83 -584.98,76.22 -875.63,124.84 -442.26,73.92 -882.96,155.21 -1323.13,238.49 -489.83,92.68 -978.62,188.62 -1466.88,287.36 -425.01,85.84 -849.5,173.45 -1273.47,265.09 -256.15,55.41 -513.88,108.37 -767.42,176.49 -14.64,4.03 -29.27,8.05 -43.92,12.39 -63.77,18.72 -36.59,118.25 27.19,99.22l0 0z"/>
  <path class="fil0" d="M12673.01 7276.28c225.31,-66.34 459.52,-106.86 689.53,-153.44 412.46,-83.8 825.98,-162.26 1240.01,-239.53 491.93,-91.64 984.37,-180.77 1477.34,-266.82 457.95,-80.04 916.41,-157.98 1375.41,-230.38 317.32,-50.14 635.16,-101.57 954.57,-134.25 24.05,-2.5 48.62,-4.76 72.67,-6.8 65.35,-5.59 65.87,-108.63 0,-103.09 -295.89,25.1 -590.73,72.92 -883.48,117.99 -451.15,69.64 -900.73,145.33 -1350.31,223.07 -495.06,85.58 -989.6,174.45 -1483.1,265.62 -432.33,79.99 -864.13,161.54 -1294.9,247.58 -260.86,52.18 -523.81,100.79 -781.54,168.65 -14.11,3.81 -29.27,7.84 -43.39,12.18 -63.77,18.71 -36.59,118.2 27.19,99.22l0 0z"/>
  <path class="fil0" d="M12761.88 7602.9c224.26,-66.08 456.9,-106.85 685.35,-153.43 406.19,-82.81 812.91,-160.81 1220.14,-237.23 930.01,-174.45 1862.1,-342.04 2796.81,-490.2 337.71,-53.64 676.98,-111.14 1018.35,-140 65.35,-5.59 65.87,-108.63 0,-103.04 -294.32,24.78 -588.11,72.41 -879.82,117.73 -444.35,68.59 -887.14,143.55 -1329.93,220.76 -910.66,158.5 -1820.8,324.59 -2727.28,507.14 -270.27,54.42 -546.29,101 -810.81,178.74 -63.25,18.76 -36.59,118.25 27.19,99.53l0 0z"/>
  <path class="fil0" d="M12821.48 7929.26c224.26,-66.08 456.37,-109.41 684.82,-158.03 405.67,-86.31 812.38,-167.86 1219.1,-248.11 929.48,-182.81 1860.53,-359.25 2795.24,-514.72 337.19,-55.93 676.98,-116.73 1017.83,-145.58 65.86,-5.6 66.39,-108.64 0,-103.04 -294.32,24.83 -587.6,74.96 -879.3,122.27 -443.83,71.93 -886.61,150.67 -1328.87,231.69 -910.67,166.55 -1820.28,341.52 -2726.24,531.65 -269.74,56.72 -545.25,106.33 -809.76,184.59 -63.77,18.72 -36.6,117.99 27.19,99.27l0 0z"/>
  <path class="fil0" d="M12910.35 8196.35c222.18,-65.55 451.67,-111.13 677.5,-161.27 405.15,-89.86 811.34,-175.7 1218.05,-259.5 923.73,-191.17 1849.55,-375.76 2779.03,-537.77 334.57,-58.24 671.24,-121.81 1009.99,-150.4 65.35,-5.54 65.87,-108.64 0,-103.04 -295.88,25.04 -590.73,77.73 -882.96,127.61 -440.17,74.7 -878.77,156.73 -1316.85,241.05 -905.43,174.18 -1808.78,357.47 -2709.5,554.97 -267.66,58.71 -539.5,111.4 -802.45,189.13 -63.26,18.46 -36.6,117.99 27.19,99.22l0 0z"/>
  <path class="fil0" d="M12643.21 9086.57c232.11,-68.64 468.93,-122.54 704.17,-180.04 426.58,-104.3 853.68,-206.08 1281.3,-306.86 506.04,-118.99 1012.08,-236.45 1518.64,-352.14 471.54,-107.37 943.59,-213.44 1416.18,-315.75 323.07,-69.9 646.66,-141.04 972.87,-197.98 24.05,-4.33 48.1,-8.36 72.14,-12.44 64.82,-10.35 37.12,-109.63 -27.7,-99.22 -300.07,48.62 -597.53,114.44 -894.46,178 -461.08,98.7 -920.59,201.53 -1380.11,305.82 -508.65,115.48 -1016.78,232.95 -1524.39,352.19 -443.3,103.82 -886.62,209.16 -1328.87,316.75 -265.04,64.3 -530.61,126.82 -793.57,200.01 -14.11,4.03 -28.75,8.1 -43.38,12.39 -63.26,18.77 -36.6,118.25 27.18,99.27l0 0z"/>
  <path class="fil0" d="M12465.47 9412.93c232.11,-68.37 468.92,-122.33 703.64,-179.78 426.58,-104.55 854.2,-206.34 1281.83,-306.86 505.51,-119.24 1012.08,-236.71 1518.64,-352.19 471.54,-107.59 943.6,-213.71 1415.66,-315.96 323.59,-69.9 647.19,-140.78 972.87,-197.97 24.04,-4.34 48.09,-8.37 72.14,-12.19 65.35,-10.61 37.64,-109.89 -27.19,-99.22 -300.59,48.36 -598.05,114.18 -894.98,177.95 -460.56,98.49 -920.6,201.32 -1379.58,305.61 -508.66,115.43 -1016.79,232.95 -1524.92,352.19 -443.31,104.03 -886.62,209.11 -1328.88,316.75 -264.52,64.56 -530.61,126.82 -793.04,200.01 -14.64,4.03 -29.27,8.1 -43.92,12.39 -63.26,18.77 -36.6,118.25 27.71,99.27l0 0z"/>
  <path class="fil0" d="M12287.21 10095.51c232.11,-68.37 468.93,-122.32 703.65,-180.04 427.1,-104.29 854.2,-206.07 1281.83,-306.86 506.04,-118.98 1012.08,-236.45 1519.16,-351.93 471.01,-107.58 943.08,-213.66 1415.66,-315.96 323.07,-69.9 646.66,-140.78 972.34,-197.98 24.05,-4.28 48.1,-8.36 72.14,-12.18 65.35,-10.61 37.64,-109.89 -27.18,-99.49 -300.07,48.62 -597.53,114.44 -894.98,178 -460.56,98.7 -920.07,201.53 -1379.58,305.82 -508.65,115.48 -1016.78,232.94 -1524.39,352.19 -443.3,104.03 -886.62,209.16 -1329.4,316.75 -264.52,64.3 -530.09,126.82 -792.52,200.01 -15.16,4.03 -29.8,8.1 -43.92,12.44 -63.77,18.72 -36.59,118.2 27.19,99.22l0 0z"/>
  <path class="fil0" d="M12198.33 10422.14c232.11,-68.64 468.93,-122.59 703.65,-180.04 427.11,-104.55 854.2,-206.34 1281.83,-306.86 505.52,-119.24 1012.08,-236.71 1518.64,-352.19 471.54,-107.58 943.59,-213.66 1415.66,-315.96 323.59,-69.9 647.19,-140.78 972.87,-197.98 24.05,-4.08 48.1,-8.36 72.14,-12.18 65.35,-10.61 37.64,-109.89 -27.18,-99.22 -300.07,48.57 -598.05,114.44 -894.98,177.95 -460.56,98.49 -920.59,201.52 -1379.58,305.87 -508.65,115.43 -1016.78,232.95 -1524.91,351.93 -443.31,104.04 -886.1,209.16 -1328.88,316.75 -264.52,64.56 -530.61,126.82 -793.04,200.01 -14.63,4.03 -29.27,8.1 -43.91,12.39 -63.26,18.77 -36.07,118.25 27.7,99.54l0 0z"/>
  <path class="fil0" d="M12257.41 10689.22c232.11,-68.64 468.93,-122.54 704.17,-179.99 426.58,-104.6 853.68,-206.39 1281.3,-306.86 506.04,-119.29 1012.08,-236.76 1519.17,-352.19 471.53,-107.64 943.07,-213.71 1415.66,-316.01 323.07,-69.85 646.66,-140.73 972.34,-197.98 24.05,-4.28 48.1,-8.36 72.14,-12.13 65.35,-10.66 38.17,-109.89 -27.18,-99.27 -300.07,48.36 -597.53,114.44 -894.46,178 -460.56,98.49 -920.59,201.26 -1380.11,305.56 -508.65,115.48 -1016.78,233.21 -1524.39,352.24 -443.3,104.03 -886.62,209.11 -1328.87,316.69 -265.04,64.56 -530.61,126.88 -793.04,200.01 -14.63,4.08 -29.27,8.1 -43.91,12.44 -63.26,18.72 -36.6,118.25 27.18,99.49l0 0z"/>
  <path class="fil0" d="M12317 10956.1c236.82,-69.9 478.86,-126.09 718.28,-185.85 438.6,-109.15 877.73,-215.49 1316.86,-320.77 520.15,-124.84 1040.83,-248.16 1561.5,-369.44 483.56,-112.39 967.64,-223.53 1452.77,-330.65 329.34,-72.67 659.21,-146.58 991.17,-205.29 24.05,-4.34 48.62,-8.37 72.67,-12.44 65.35,-10.35 37.64,-109.89 -27.19,-99.22 -305.3,49.35 -607.98,117.99 -909.62,183.81 -472.58,103.03 -943.59,210.88 -1415.13,319.98 -522.77,121.07 -1045.02,244.34 -1567.26,369.18 -455.33,108.89 -911.18,218.98 -1365.99,331.64 -270.79,66.87 -542.11,132.16 -811.34,207.13 -14.64,4.08 -29.27,8.36 -44.43,12.65 -63.26,18.77 -36.07,118.25 27.7,99.28l0 0z"/>
  <path class="fil0" d="M12228.13 11312.31c241.52,-71.41 488.27,-128.08 732.92,-188.88 450.1,-111.4 901.26,-219.98 1351.88,-327.88 534.26,-127.61 1069.06,-253.7 1604.37,-377.76 496.1,-114.95 992.22,-228.61 1489.89,-338.23 335.09,-73.71 670.7,-148.89 1008.94,-208.9 24.05,-4.28 48.62,-8.63 73.19,-12.39 65.35,-10.61 37.64,-109.89 -27.19,-99.49 -310,50.35 -617.39,119.98 -923.73,186.84 -484.6,105.55 -967.64,215.44 -1450.15,326.84 -537.41,124.1 -1073.77,250.14 -1610.13,377.75 -468.4,111.4 -935.76,224.11 -1403.11,339.02 -277.07,68.37 -554.65,134.45 -829.63,210.94 -15.16,4.28 -29.8,8.36 -44.96,12.91 -63.26,18.72 -36.07,117.99 27.7,99.22l0 0z"/>
  <path class="fil0" d="M12287.21 11638.67c242.57,-71.67 487.74,-134.98 732.4,-200.27 449.58,-120.29 899.68,-238.75 1350.31,-356 536.36,-139.48 1072.72,-277.7 1610.13,-413.41 495.58,-125.36 991.17,-248.89 1488.32,-367.4 334.05,-79.72 669.14,-161.54 1007.37,-223.07 24.57,-4.55 48.62,-8.57 73.18,-12.65 65.35,-10.61 37.64,-109.89 -27.7,-99.22 -310,50.35 -616.86,126.36 -922.69,198.23 -484.08,113.91 -966.6,233.68 -1448.59,354.96 -539.5,135.71 -1077.94,273.72 -1615.88,413.46 -467.35,121.28 -934.71,243.82 -1401.54,368.13 -276.02,73.66 -553.09,146.32 -828.07,225.05 -15.16,4.33 -29.8,8.63 -44.44,12.96 -63.77,18.72 -36.59,118.2 27.19,99.22l0 0z"/>
  <path class="fil0" d="M12317 12707.11c251.45,-74.7 499.76,-159.76 748.6,-241.26 465.79,-152.18 931.57,-304.88 1397.36,-456.53 550.48,-178.73 1100.95,-356.48 1652.47,-530.93 511.26,-161.74 1023.58,-321.5 1537.98,-472.69 339.8,-99.74 681.17,-204.3 1028.81,-273.46 24.57,-4.76 49.66,-9.36 74.23,-13.38 65.35,-10.66 37.64,-109.89 -27.19,-99.54 -317.84,51.91 -630.46,150.19 -939.41,239.27 -500.81,144.6 -998.49,299.03 -1495.64,455.49 -553.61,174.18 -1106.7,351.93 -1658.22,530.92 -484.08,156.99 -967.64,315.49 -1451.2,473.73 -282.82,92.42 -565.63,187.36 -849.5,275.23 -15.16,4.55 -30.84,9.31 -46,13.91 -63.26,18.72 -36.07,118.25 27.7,99.22l0 0z"/>
  <path class="fil0" d="M12198.33 13092.96c252.5,-74.91 502.91,-157.2 754.36,-236.71 466.83,-148.1 934.18,-296.72 1401.54,-444.88 551,-174.66 1101.99,-348.84 1654.04,-521.56 511.27,-160.02 1022.54,-318.73 1535.37,-473.42 338.75,-102.57 678.55,-207.38 1022.01,-294.22 24.05,-6.06 48.1,-11.92 72.14,-17.72 64.82,-14.95 37.12,-114.17 -27.18,-99.22 -313.67,73.4 -622.62,170.37 -931.05,262.8 -498.72,149.09 -995.87,303.05 -1492.5,458.25 -554.14,172.67 -1106.7,347.12 -1659.79,522.09 -485.12,153.64 -970.26,307.85 -1454.86,461.81 -284.91,90.59 -569.82,182.49 -856.29,269.59 -15.16,4.55 -30.32,9.41 -45.48,13.7 -63.26,18.98 -36.07,118.25 27.7,99.48l0 0z"/>
  <path class="fil0" d="M12109.47 13389.68c250.93,-74.65 499.24,-159.7 748.6,-241.25 465.26,-152.18 931.05,-304.83 1397.35,-456.48 549.95,-178.79 1100.43,-356.48 1652.47,-530.98 511.27,-161.75 1023.06,-321.5 1537.99,-472.69 339.8,-99.74 681.16,-204.3 1028.8,-273.41 24.57,-4.81 49.14,-9.35 74.23,-13.44 65.35,-10.61 37.64,-109.89 -27.7,-99.48 -317.32,51.91 -630.46,150.14 -938.89,239.22 -500.81,144.59 -999.01,299.02 -1496.17,455.53 -553.61,174.19 -1106.17,351.88 -1658.21,530.88 -484.08,156.98 -967.65,315.49 -1450.69,473.47 -283.34,92.68 -565.63,187.36 -850.02,275.5 -15.16,4.54 -30.32,9.36 -45.48,13.64 -63.26,19.03 -36.07,118.25 27.71,99.48l0 0z"/>
  <path class="fil0" d="M12049.87 13716.04c251.45,-74.7 499.76,-159.7 748.6,-241.25 465.78,-152.18 931.57,-304.88 1397.36,-456.27 550.47,-179 1100.95,-356.74 1652.46,-531.19 511.27,-161.75 1023.58,-321.5 1537.99,-472.69 339.8,-99.74 681.69,-204.3 1028.8,-273.46 24.57,-4.76 49.66,-9.3 74.24,-13.38 65.35,-10.61 37.64,-109.89 -27.19,-99.27 -317.84,51.65 -630.46,149.93 -939.42,239.01 -500.81,144.86 -998.48,299.02 -1495.63,455.48 -553.61,174.19 -1106.7,351.93 -1658.22,531.19 -484.08,156.99 -967.64,315.23 -1451.21,473.47 -282.81,92.43 -565.11,187.36 -849.5,275.24 -15.16,4.76 -30.32,9.36 -46,13.9 -63.25,18.72 -36.07,118.25 27.71,99.22l0 0z"/>
  <path class="fil0" d="M12079.67 13953.54c250.93,-74.7 499.24,-159.76 748.6,-241.26 465.78,-152.18 931.05,-304.88 1397.35,-456.48 549.95,-178.78 1100.95,-356.53 1652.47,-530.98 511.27,-161.75 1023.58,-321.5 1537.99,-472.69 339.27,-99.74 681.17,-204.3 1028.8,-273.46 24.57,-4.75 49.66,-9.35 74.24,-13.38 65.35,-10.66 37.64,-109.89 -27.19,-99.54 -317.84,51.91 -630.98,150.14 -939.42,239.27 -500.81,144.59 -998.49,299.02 -1495.64,455.49 -554.13,174.18 -1106.17,351.93 -1658.74,530.92 -483.56,156.99 -967.13,315.49 -1450.69,473.73 -282.81,92.42 -565.63,187.1 -850.02,275.18 -15.16,4.6 -30.32,9.36 -45.48,13.69 -63.26,18.98 -36.07,118.51 27.71,99.49l0 0z"/>
  <path class="fil0" d="M12109.47 14220.68c250.93,-74.7 499.24,-159.76 748.6,-241.31 465.26,-152.13 931.05,-304.83 1397.35,-456.48 549.95,-179 1100.43,-356.48 1652.47,-531.19 511.27,-161.54 1023.06,-321.29 1537.99,-472.43 339.8,-99.8 681.16,-204.61 1028.8,-273.46 24.57,-4.81 49.14,-9.62 74.23,-13.7 65.35,-10.61 37.64,-109.89 -27.7,-99.22 -317.32,51.91 -630.46,150.14 -938.89,239.27 -500.81,144.55 -999.01,298.98 -1496.17,455.49 -553.61,174.18 -1106.17,351.93 -1658.21,530.92 -484.08,156.94 -967.65,315.44 -1450.69,473.48 -283.34,92.63 -565.63,187.3 -850.02,275.44 -15.16,4.55 -30.32,9.36 -45.48,13.69 -63.26,18.98 -36.07,118.2 27.71,99.49l0 0z"/>
  <path class="fil0" d="M12228.13 14428.27c250.93,-74.65 499.25,-159.76 748.6,-241.26 465.79,-152.18 931.05,-304.83 1397.36,-456.27 549.95,-178.99 1100.95,-356.74 1652.47,-531.19 511.26,-161.8 1023.58,-321.5 1537.98,-472.69 339.28,-99.74 681.17,-204.3 1028.81,-273.46 24.57,-4.82 49.14,-9.36 74.23,-13.38 65.35,-10.66 37.64,-109.89 -27.19,-99.27 -317.84,51.65 -630.98,149.88 -939.41,239.01 -500.81,144.81 -998.49,299.03 -1496.17,455.49 -553.61,174.18 -1106.18,351.93 -1658.22,531.19 -483.56,156.98 -967.12,315.22 -1451.2,473.47 -282.81,92.68 -565.11,187.36 -849.5,275.18 -15.16,4.86 -30.32,9.41 -45.48,13.96 -63.26,18.71 -36.07,118.2 27.7,99.22l0 0z"/>
  <path class="fil0" d="M12346.28 11905.75c250.93,-78.94 505,-146.53 758.01,-217.21 455.33,-127.61 911.19,-253.44 1367.56,-379.74 536.88,-148.62 1074.29,-297.25 1610.65,-446.91 496.63,-138.22 992.73,-276.96 1487.8,-418.53 333,-95.45 667.05,-189.34 996.92,-294.94 23.53,-7.58 47.04,-15.42 70.57,-23.05 62.73,-21.02 35.55,-120.5 -27.18,-99.49 -300.6,100.27 -606.94,185.58 -911.71,273.46 -481.46,138.48 -963.98,273.67 -1447.02,408.38 -537.93,150.35 -1076.38,299.5 -1615.35,448.64 -472.59,130.64 -944.64,261.28 -1417.23,393.17 -284.39,79.25 -569.82,156.72 -852.11,242.3 -16.21,4.82 -31.89,9.62 -48.1,14.69 -63.25,19.77 -36.07,119.24 27.19,99.22l0 0z"/>
  <path class="fil0" d="M12435.67 9739.51c232.11,-68.58 468.92,-122.53 703.65,-179.99 426.57,-104.55 854.2,-206.07 1281.83,-306.86 506.04,-119.24 1012.08,-236.5 1518.64,-352.19 471.54,-107.59 943.08,-213.71 1416.18,-315.7 323.07,-70.15 646.66,-141.05 972.35,-198.23 24.05,-4.08 48.09,-8.16 72.14,-12.18 65.35,-10.61 37.64,-109.89 -27.19,-99.28 -300.07,48.62 -597.52,114.44 -894.98,178 -460.56,98.49 -920.07,201.53 -1379.58,305.87 -508.66,115.43 -1016.78,232.95 -1524.92,351.93 -443.3,104.03 -886.09,209.11 -1328.88,316.7 -264.52,64.61 -530.09,127.13 -793.04,200.06 -14.64,4.03 -29.27,8.32 -43.39,12.65 -63.77,18.72 -36.6,117.99 27.19,99.22l0 0z"/>
  <path class="fil0" d="M3217.7 6662.03c-560.93,849.23 -770.56,1932.36 -544.72,2927.34 59.6,262.58 162.58,525.38 365.94,709.7 49.14,44.54 122.33,-28.12 73.19,-72.66 -178.79,-161.54 -271.32,-385.39 -327.78,-614.47 -59.07,-236.76 -88.35,-481.57 -95.14,-725.18 -14.12,-486.59 67.96,-974.22 238.38,-1430.24 97.23,-261.02 225.31,-509.91 379.01,-742.59 36.6,-55.47 -52.28,-107.07 -88.87,-51.91l0 0z"/>
  <path class="fil0" d="M3628.08 6721.78c-499.24,851.23 -693.19,1866.49 -559.36,2843.28 38.16,278.27 104.03,552.21 195.51,817.82 21.44,62.26 120.76,35.44 99.33,-27.34 -316.27,-914.79 -307.91,-1927.5 10.46,-2840.78 89.91,-257.72 204.92,-505.62 342.93,-741.07 33.98,-57.19 -55.41,-109.1 -88.87,-51.91l0 0z"/>
  <path class="fil0" d="M10115.1 7958.6c-480.42,874.54 -692.14,1891.06 -603.27,2884.58 25.09,281.77 73.71,560.83 145.33,834.24 17.25,64.04 116.58,36.7 99.33,-27.6 -248.84,-944.64 -206.49,-1956.62 110.83,-2879.98 89.92,-262.32 202.83,-515.97 336.66,-759.06 31.89,-58.23 -56.98,-110.14 -88.87,-52.17l0 0z"/>
  <path class="fil0" d="M10453.34 8005.43c-207.02,443.62 -387.89,901.36 -499.76,1378.85 -104.55,448.17 -144.81,908.94 -117.62,1368.24 16.73,284.07 57.5,566.37 113.96,845.1 13.07,65.09 112.4,37.49 99.32,-27.34 -94.62,-468.61 -141.14,-946.63 -108.21,-1424.65 30.84,-447.91 133.3,-887.19 280.73,-1310.48 92.52,-264.84 201.79,-523.34 320.46,-777.83 27.7,-59.75 -60.64,-111.92 -88.87,-51.91l0 0z"/>
  <path class="fil0" d="M12791.16 2437.9c-547.86,611.43 -725.6,1509.76 -491.93,2292.86 58.56,196.2 142.72,385.86 252.5,558.79 26.66,41.51 66.39,84.8 82.08,131.9 21.95,66.34 -28.75,123.06 -65.35,172.93 -56.46,76.69 -105.08,157.72 -146.37,243.04 -175.13,362.07 -225.31,776.05 -205.97,1174.03 21.95,448.17 125.98,896.81 315.23,1303.94 9.93,-25.36 20.38,-50.4 30.84,-75.69 -207.54,67.59 -336.66,247.84 -422.92,439.23 -105.59,232.68 -176.17,485.39 -236.81,732.71 -141.67,583.88 -185.06,1190.76 -114.49,1788.02 41.82,353.44 120.76,700.56 232.63,1038.32 12.02,-21.27 24.04,-42.29 36.07,-63.57 -342.42,99.01 -481.99,463.33 -543.16,781.59 -73.71,379.79 -105.6,793.77 -26.14,1174.82 44.96,217.21 135.92,419.78 278.64,590.41 42.34,50.87 115,-22.53 72.66,-72.92 -239.95,-286.63 -297.98,-667.88 -290.66,-1030.74 3.66,-183.28 20.91,-367.61 49.66,-548.64 24.57,-155.22 60.64,-312.94 128.08,-455.49 74.23,-156.21 187.15,-290.13 358.09,-339.48 26.14,-7.64 44.96,-36.75 36.07,-63.31 -185.06,-559.79 -278.63,-1145.18 -260.34,-1735.12 16.73,-544.57 125.47,-1088.19 311.05,-1600.61 76.32,-211.15 187.67,-460.56 418.74,-535.99 33.98,-10.87 45.48,-44.59 30.84,-75.69 -164.14,-352.98 -259.81,-741.6 -292.75,-1128.97 -33.46,-391.92 -4.71,-803.6 148.99,-1169.74 36.6,-86.04 80.51,-169.38 131.74,-247.85 51.75,-79.77 134.35,-157.71 134.88,-259.5 0.52,-100.79 -82.6,-185.32 -131.74,-267.14 -52.8,-88.86 -99.85,-181.5 -139.05,-277.48 -151.61,-368.13 -200.22,-774.74 -153.18,-1169.49 53.85,-453.19 239.43,-891.42 545.25,-1232.48 43.91,-49.14 -28.23,-122.27 -73.19,-72.67l0 0z"/>
  <path class="fil0" d="M3497.91 11508.03c-62.21,350.15 -418.74,579.29 -796.18,511.95 -376.91,-67.59 -632.02,-406.14 -568.77,-756.29 62.21,-350.15 418.74,-579.28 796.18,-511.94 376.91,67.59 632.02,406.13 568.77,756.28z"/>
  <path class="fil0" d="M19440.24 3068.1c718.8,-190.91 873.55,-345.6 1064.35,-1064.67 190.81,719.07 345.55,873.75 1064.36,1064.67 -718.8,190.6 -873.55,345.29 -1064.36,1064.36 -190.81,-719.07 -345.55,-873.75 -1064.35,-1064.36z"/>
  <path class="fil0" d="M21612.86 2141.91c333.53,-88.35 405.15,-160.02 493.5,-493.44 88.35,333.43 159.97,405.09 493.49,493.44 -333.53,88.35 -405.14,160.28 -493.49,493.49 -88.35,-333.21 -159.97,-405.14 -493.5,-493.49z"/>
  <path class="fil0" d="M21697.56 3705.09l167.8 0 0 167.86c0,49.87 77.37,49.87 77.37,0l0 -167.86 156.31 0c49.66,0 49.66,-77.22 0,-77.22l-156.31 0 0 -145.07c0,-49.66 -77.37,-49.87 -77.37,0l0 145.07 -167.8 0c-50.19,0 -50.19,77.22 0,77.22z"/>
  <path class="fil0" d="M20806.23 939.55l168.33 0 0 168.12c0,49.61 77.37,49.61 77.37,0l0 -168.12 156.31 0c49.66,0 49.66,-77.22 0,-77.22l-156.31 0 0 -145.12c0,-49.61 -77.37,-49.61 -77.37,0l0 145.12 -168.33 0c-49.66,0 -49.66,77.22 0,77.22z"/>
  <path class="fil0" d="M507.15 7101.36c43.92,-69.42 -65.87,-132.94 -109.25,-64.09 -196.56,313.98 -322.03,670.71 -371.69,1037.33 -50.7,369.91 -28.23,748.65 71.1,1108.68 55.94,202.05 135.92,397.26 238.91,579.8 39.72,70.89 149.51,7.32 109.25,-63.82 -173.56,-308.12 -278.11,-654.25 -308.95,-1006.18 -30.85,-353.71 7.84,-711.43 117.1,-1048.94 62.21,-190.86 147.42,-372.94 253.54,-542.79z"/>
  <path class="fil0" d="M318.43 10571.23c-120.76,211.15 -147.95,469.92 -72.67,701.61 25.61,76.95 147.95,44.02 122.33,-33.67 -65.87,-200.27 -44.96,-420.57 60.11,-603.85 40.26,-70.94 -69,-134.72 -109.78,-64.09z"/>
 </g>
</svg>
